<svg width="623" height="346" viewBox="0 0 623 346" fill="none" xmlns="http://www.w3.org/2000/svg">
<g clip-path="url(#clip0_1347_197)">
<path d="M1.95715 239.992L13.692 212.6C20.9868 216.666 27.7398 218.964 31.4762 218.964C33.7892 218.964 35.9243 218.61 38.0593 217.55L0 124.784H42.0707L58.6903 175.671L74.1615 124.784H115.246L81.6343 214.545C72.2044 239.815 61.8929 250.06 39.4827 250.06C25.4349 250.06 12.8024 245.994 1.95715 239.984V239.992Z" fill="#FFBE00"/>
<path d="M104.922 174.947V174.602C104.922 147.781 127.364 124.784 158.921 124.784C190.479 124.784 212.573 147.427 212.573 174.256V174.602C212.573 201.431 190.131 224.42 158.574 224.42C127.017 224.42 104.922 201.777 104.922 174.947ZM174.352 174.947V174.602C174.352 165.193 167.34 157.704 158.574 157.704C149.807 157.704 143.143 165.193 143.143 174.248V174.594C143.143 184.003 150.155 191.492 158.921 191.492C167.688 191.492 174.352 184.003 174.352 174.947Z" fill="#FFBE00"/>
<path d="M217.43 188.543V124.784H256.484V176.064C256.484 184.099 261.304 188.712 267.151 188.712C272.998 188.712 278.336 184.099 278.336 176.064V127.002H318.999V219.8H278.336V207.851C272.311 215.541 262.849 222.556 249.601 222.556C229.82 222.556 217.43 209.563 217.43 188.543Z" fill="#FFBE00"/>
<path d="M328.07 124.648H367.124V145.676C372.454 133.029 381.059 124.825 396.546 125.508V166.704H392.414C375.899 166.704 367.124 175.768 367.124 196.45V219.816H328.07V124.656V124.648Z" fill="#FFBE00"/>
<path d="M82.5393 212.064H122.475V257.663C128.629 249.797 138.31 242.629 151.848 242.629C172.075 242.629 184.748 255.911 184.748 277.413V345.763H144.812V290.165C144.812 281.953 139.887 277.229 133.902 277.229C127.918 277.229 122.467 281.945 122.467 290.165V345.763H82.5312V212.056L82.5393 212.064Z" fill="#6FBBB9"/>
<path d="M188.695 292.117V291.772C188.695 272.721 202.945 262.058 225.283 262.058C233.378 262.058 243.754 263.802 247.976 265.553V263.978C247.976 255.236 242.525 250.174 230.208 250.174C220.357 250.174 212.092 252.271 203.649 255.59L196.613 229.202C207.693 225.008 220.358 222.212 237.074 222.212C256.597 222.212 269.262 226.229 277.713 234.618C284.927 241.785 287.742 251.05 287.742 264.854V319.212H247.806V309.602C241.118 316.769 232.149 321.486 220.188 321.486C201.716 321.486 188.703 311 188.703 292.125L188.695 292.117ZM248.324 283.898V279.88C246.035 279.004 242.517 278.305 239.177 278.305C231.259 278.305 226.86 283.022 226.86 288.968V289.313C226.86 294.906 230.903 298.578 236.007 298.578C243.043 298.578 248.324 292.985 248.324 283.898Z" fill="#6FBBB9"/>
<path d="M293.812 219.81H333.748V233.791C340.258 226.8 347.642 219.81 362.248 219.81C385.467 219.81 403.591 239.905 403.591 269.097V269.443C403.591 299.679 385.297 319.775 362.604 319.775C348.006 319.775 339.911 313.483 333.756 306.669V345.471H293.821V219.81H293.812ZM364.885 269.973V269.627C364.885 260.017 358.027 252.496 348.88 252.496C339.733 252.496 332.875 260.009 332.875 269.627V269.973C332.875 279.414 339.733 287.104 348.88 287.104C358.027 287.104 364.885 279.591 364.885 269.973Z" fill="#6FBBB9"/>
<path d="M407.961 222.084H447.897V233.791C454.407 226.8 461.791 219.81 476.397 219.81C499.616 219.81 517.739 239.905 517.739 269.097V269.443C517.739 299.679 499.446 319.775 476.752 319.775C462.155 319.775 454.059 313.483 447.905 306.669V345.471H407.969V222.075L407.961 222.084ZM479.033 269.973V269.627C479.033 260.017 472.175 252.496 463.028 252.496C453.881 252.496 447.023 260.009 447.023 269.627V269.973C447.023 279.414 453.881 287.104 463.028 287.104C472.175 287.104 479.033 279.591 479.033 269.973Z" fill="#6FBBB9"/>
<path d="M511.222 336.038L522.835 308.951C530.049 312.969 536.73 315.243 540.426 315.243C542.714 315.243 544.825 314.897 546.936 313.845L509.289 222.083H550.632L567.34 272.415L582.642 222.083H623.281L590.034 310.872C580.709 335.861 570.511 346.001 548.343 346.001C534.449 346.001 521.954 341.984 511.222 336.038Z" fill="#6FBBB9"/>
<path d="M0 0H104.886V35.4751H42.0707V51.3685H100.858V83.8786H42.0707V124.777H0V0Z" fill="#008C67"/>
<path d="M111.445 0H150.273V24.7883H111.445V0ZM111.445 31.4495H150.273V124.777H111.445V31.4495Z" fill="#008C67"/>
<path d="M156.512 31.4487H195.566V44.4415C201.591 36.7519 211.053 29.231 224.3 29.231C244.082 29.231 256.472 42.2238 256.472 63.2436V124.785H217.418V75.7222C217.418 67.6871 212.598 63.0749 206.751 63.0749C200.903 63.0749 195.566 67.6871 195.566 75.7222V124.785H156.512V31.4487Z" fill="#008C67"/>
<path d="M259.746 78.8004V78.4549C259.746 48.8857 277.635 29.2237 299.835 29.2237C314.118 29.2237 322.027 35.3786 328.052 42.0478V0H367.106V124.785H328.052V113.335C321.688 120.173 314.457 127.011 300.183 127.011C277.474 127.011 259.754 107.357 259.754 78.8084L259.746 78.8004ZM328.91 78.2862V77.9407C328.91 68.7083 322.197 61.1874 313.252 61.1874C304.308 61.1874 297.595 68.5396 297.595 77.9407V78.2862C297.595 87.6873 304.308 95.0394 313.252 95.0394C322.197 95.0394 328.91 87.6873 328.91 78.2862Z" fill="#008C67"/>
</g>
<defs>
<clipPath id="clip0_1347_197">
<rect width="623" height="346" fill="white"/>
</clipPath>
</defs>
</svg>
