<svg width="261" height="80" viewBox="0 0 261 80" fill="none" xmlns="http://www.w3.org/2000/svg">
<mask id="path-1-inside-1_1347_302" fill="white">
<path d="M0 40C0 17.9086 17.9086 0 40 0H221C243.091 0 261 17.9086 261 40C261 62.0914 243.091 80 221 80H40C17.9086 80 0 62.0914 0 40Z"/>
</mask>
<path d="M0 40C0 17.9086 17.9086 0 40 0H221C243.091 0 261 17.9086 261 40C261 62.0914 243.091 80 221 80H40C17.9086 80 0 62.0914 0 40Z" fill="#2E9595"/>
<path d="M0 0H261H0M261 40C261 63.7482 241.748 83 218 83H43C19.2518 83 0 63.7482 0 40C0 60.4345 17.9086 77 40 77H221C243.091 77 261 60.4345 261 40ZM261 40M0 80V0V80M0 80M261 0V80V0" fill="#1A7171" mask="url(#path-1-inside-1_1347_302)"/>
<path d="M45.3439 47.4661C46.0066 47.4661 46.5444 48.0039 46.5444 48.6667C46.5443 49.3293 46.0065 49.8672 45.3439 49.8672H45.3321C44.6696 49.867 44.1317 49.3292 44.1316 48.6667C44.1316 48.0041 44.6696 47.4664 45.3321 47.4661H45.3439Z" fill="white"/>
<path fill-rule="evenodd" clip-rule="evenodd" d="M61.5014 26.1341C63.2504 26.1303 64.1263 28.2448 62.8907 29.4805L59.2735 33.0976C58.8226 33.549 58.8233 34.2789 59.2709 34.7266C59.7205 35.1759 60.4501 35.1755 60.8998 34.7266L64.5183 31.1094L64.6368 31C65.8837 29.9306 67.868 30.8041 67.8647 32.4987V34.8346C67.8609 36.9316 67.8351 38.3439 67.6863 39.3659C67.5813 40.087 67.408 40.6898 67.1043 41.2474C66.8056 41.7955 66.4174 42.2325 65.9923 42.6575C64.9149 43.7346 63.4445 44.1627 61.8347 44.3568C60.348 44.5359 58.5401 44.5338 56.4949 44.5325L48.6186 52.4101C46.6772 54.3512 43.5299 54.3514 41.5887 52.4101C39.6475 50.4688 39.6476 47.3216 41.5887 45.3802L49.4663 37.5026C49.465 35.4585 49.4628 33.6509 49.642 32.1641C49.8361 30.5544 50.264 29.0838 51.3413 28.0065C51.7665 27.5814 52.2044 27.1932 52.7527 26.8945C53.3101 26.5911 53.9121 26.4175 54.6329 26.3125C55.9956 26.1142 58.0528 26.1341 61.5014 26.1341ZM43.2853 47.0768C42.2815 48.0809 42.2813 49.7095 43.2853 50.7135C44.2893 51.7176 45.9178 51.7174 46.922 50.7135L53.5678 44.0638C51.9151 43.3999 50.5965 42.0803 49.9337 40.4271L43.2853 47.0768ZM60.4441 28.5338C57.5583 28.5334 56.0011 28.5388 54.9793 28.6875C54.4493 28.7647 54.139 28.8724 53.8998 29.0026C53.6516 29.1379 53.4065 29.3371 53.0392 29.7044C52.531 30.2127 52.1964 31.0284 52.0248 32.4505C51.8529 33.8765 51.866 35.6755 51.866 37.9987L51.8712 38.2109C51.9829 40.3946 53.7892 42.1325 55.9975 42.1328C58.3224 42.1328 60.1222 42.1458 61.5483 41.9739C62.9698 41.8025 63.7858 41.4689 64.2944 40.9609C64.6619 40.5935 64.8609 40.3472 64.9962 40.0989C65.1264 39.8599 65.2341 39.5505 65.3113 39.0208C65.4601 37.9992 65.4654 36.4419 65.465 33.556L62.5965 36.4232C61.2094 37.8093 58.9611 37.8097 57.5743 36.4232C56.1859 35.0348 56.1923 32.7862 57.5769 31.401L60.4441 28.5338Z" fill="white"/>
<path d="M83.841 47V33H86.301V44.76H93.661V47H83.841ZM100.589 47.24C99.0418 47.24 97.7485 46.7333 96.7085 45.72C95.6818 44.6933 95.1685 43.3733 95.1685 41.76V41.72C95.1685 40.1733 95.6552 38.8733 96.6285 37.82C97.6018 36.7533 98.8352 36.22 100.329 36.22C101.929 36.22 103.169 36.7667 104.049 37.86C104.942 38.94 105.389 40.2867 105.389 41.9C105.389 42.0333 105.375 42.26 105.349 42.58H97.5885C97.7218 43.4333 98.0618 44.0933 98.6085 44.56C99.1552 45.0267 99.8285 45.26 100.629 45.26C101.655 45.26 102.609 44.84 103.489 44L104.909 45.26C103.789 46.58 102.349 47.24 100.589 47.24ZM97.5685 40.98H102.989C102.909 40.1667 102.635 39.5 102.169 38.98C101.702 38.46 101.082 38.2 100.309 38.2C99.5618 38.2 98.9418 38.4533 98.4485 38.96C97.9685 39.4667 97.6752 40.14 97.5685 40.98ZM110.859 47.22C109.805 47.22 108.912 46.9333 108.179 46.36C107.459 45.7867 107.099 44.9867 107.099 43.96V43.92C107.099 42.8 107.492 41.9533 108.279 41.38C109.079 40.8067 110.145 40.52 111.479 40.52C112.452 40.52 113.399 40.6667 114.319 40.96V40.7C114.319 39.1667 113.445 38.4 111.699 38.4C110.739 38.4 109.732 38.62 108.679 39.06L108.019 37.16C109.365 36.5867 110.699 36.3 112.019 36.3C113.592 36.3 114.759 36.6933 115.519 37.48C116.279 38.24 116.659 39.3267 116.659 40.74V47H114.299V45.68C113.445 46.7067 112.299 47.22 110.859 47.22ZM111.539 45.46C112.352 45.46 113.025 45.2533 113.559 44.84C114.092 44.4133 114.359 43.8667 114.359 43.2V42.48C113.639 42.2 112.839 42.06 111.959 42.06C111.172 42.06 110.559 42.2133 110.119 42.52C109.692 42.8267 109.479 43.26 109.479 43.82V43.86C109.479 44.3533 109.672 44.7467 110.059 45.04C110.445 45.32 110.939 45.46 111.539 45.46ZM119.537 47V36.44H121.977V38.82C122.724 37.02 123.97 36.16 125.717 36.24V38.8H125.577C124.47 38.8 123.59 39.16 122.937 39.88C122.297 40.5867 121.977 41.62 121.977 42.98V47H119.537ZM127.799 47V36.44H130.239V38.06C131.119 36.8333 132.219 36.22 133.539 36.22C134.725 36.22 135.645 36.5867 136.299 37.32C136.965 38.04 137.299 39.02 137.299 40.26V47H134.879V41C134.879 40.1733 134.679 39.54 134.279 39.1C133.892 38.6467 133.339 38.42 132.619 38.42C131.899 38.42 131.319 38.6533 130.879 39.12C130.452 39.5867 130.239 40.2267 130.239 41.04V47H127.799ZM145.297 47L151.457 32.9H153.737L159.897 47H157.297L155.877 43.62H149.257L147.817 47H145.297ZM150.157 41.44H154.977L152.557 35.84L150.157 41.44ZM171.714 47V35.28H167.254V33H178.634V35.28H174.174V47H171.714ZM179.479 47V36.44H181.919V38.82C182.665 37.02 183.912 36.16 185.659 36.24V38.8H185.519C184.412 38.8 183.532 39.16 182.879 39.88C182.239 40.5867 181.919 41.62 181.919 42.98V47H179.479ZM190.292 47.22C189.239 47.22 188.346 46.9333 187.612 46.36C186.892 45.7867 186.532 44.9867 186.532 43.96V43.92C186.532 42.8 186.926 41.9533 187.712 41.38C188.512 40.8067 189.579 40.52 190.912 40.52C191.886 40.52 192.832 40.6667 193.752 40.96V40.7C193.752 39.1667 192.879 38.4 191.132 38.4C190.172 38.4 189.166 38.62 188.112 39.06L187.452 37.16C188.799 36.5867 190.132 36.3 191.452 36.3C193.026 36.3 194.192 36.6933 194.952 37.48C195.712 38.24 196.092 39.3267 196.092 40.74V47H193.732V45.68C192.879 46.7067 191.732 47.22 190.292 47.22ZM190.972 45.46C191.786 45.46 192.459 45.2533 192.992 44.84C193.526 44.4133 193.792 43.8667 193.792 43.2V42.48C193.072 42.2 192.272 42.06 191.392 42.06C190.606 42.06 189.992 42.2133 189.552 42.52C189.126 42.8267 188.912 43.26 188.912 43.82V43.86C188.912 44.3533 189.106 44.7467 189.492 45.04C189.879 45.32 190.372 45.46 190.972 45.46ZM203.351 47.22C202.031 47.22 200.884 46.7267 199.911 45.74C198.937 44.7533 198.451 43.42 198.451 41.74V41.7C198.451 40.02 198.931 38.6867 199.891 37.7C200.864 36.7133 202.017 36.22 203.351 36.22C204.831 36.22 206.031 36.84 206.951 38.08V32.4H209.371V47H206.951V45.24C206.017 46.56 204.817 47.22 203.351 47.22ZM203.931 45.12C204.771 45.12 205.491 44.8067 206.091 44.18C206.691 43.54 206.991 42.7267 206.991 41.74V41.7C206.991 40.7133 206.691 39.9067 206.091 39.28C205.491 38.64 204.771 38.32 203.931 38.32C203.077 38.32 202.357 38.6333 201.771 39.26C201.184 39.8733 200.891 40.6867 200.891 41.7V41.74C200.891 42.74 201.184 43.5533 201.771 44.18C202.357 44.8067 203.077 45.12 203.931 45.12ZM217.249 47.24C215.702 47.24 214.409 46.7333 213.369 45.72C212.342 44.6933 211.829 43.3733 211.829 41.76V41.72C211.829 40.1733 212.315 38.8733 213.289 37.82C214.262 36.7533 215.495 36.22 216.989 36.22C218.589 36.22 219.829 36.7667 220.709 37.86C221.602 38.94 222.049 40.2867 222.049 41.9C222.049 42.0333 222.035 42.26 222.009 42.58H214.249C214.382 43.4333 214.722 44.0933 215.269 44.56C215.815 45.0267 216.489 45.26 217.289 45.26C218.315 45.26 219.269 44.84 220.149 44L221.569 45.26C220.449 46.58 219.009 47.24 217.249 47.24ZM214.229 40.98H219.649C219.569 40.1667 219.295 39.5 218.829 38.98C218.362 38.46 217.742 38.2 216.969 38.2C216.222 38.2 215.602 38.4533 215.109 38.96C214.629 39.4667 214.335 40.14 214.229 40.98Z" fill="white"/>
</svg>
