<svg width="243" height="64" viewBox="0 0 243 64" fill="none" xmlns="http://www.w3.org/2000/svg">
<g clip-path="url(#clip0_1347_230)">
<path d="M6.40327 17.6812L1.20703 30.1688H5.6104L6.24462 28.5038H10.5604L11.2119 30.1688H15.6863L10.49 17.6812H6.40327ZM8.41113 22.5522L9.53853 25.5634H7.28408L8.41113 22.5522Z" fill="#F3F3F3"/>
<path d="M15.1562 24.0035V23.9682C15.1562 20.2665 18.027 17.5029 21.7089 17.5029C24.4213 17.5029 26.2533 18.8315 27.2924 20.7267L23.893 22.728C23.435 21.8427 22.7832 21.2226 21.6558 21.2226C20.2642 21.2226 19.3482 22.4451 19.3482 23.9328V23.9682C19.3482 25.5801 20.2994 26.7137 21.6558 26.7137C22.8187 26.7137 23.4705 26.076 23.9809 25.1549L27.3807 27.0855C26.3416 28.9276 24.6151 30.4331 21.5499 30.4331C18.1329 30.4331 15.1562 27.8474 15.1562 24.0035Z" fill="#F3F3F3"/>
<path d="M27.6133 24.0035V23.9682C27.6133 20.2665 30.4844 17.5029 34.1663 17.5029C36.8791 17.5029 38.7107 18.8315 39.7501 20.7267L36.3504 22.728C35.8924 21.8427 35.2406 21.2226 34.1132 21.2226C32.7216 21.2226 31.8056 22.4451 31.8056 23.9328V23.9682C31.8056 25.5801 32.7568 26.7137 34.1132 26.7137C35.2757 26.7137 35.9279 26.076 36.4387 25.1549L39.8381 27.0855C38.799 28.9276 37.0729 30.4331 34.0073 30.4331C30.5902 30.4331 27.6133 27.8474 27.6133 24.0035Z" fill="#F3F3F3"/>
<path d="M40.7148 17.7695H51.2311V21.1702H44.7661V22.428H50.7907V25.4211H44.7661V26.7674H51.3191V30.1684H40.7148V17.7695Z" fill="#F3F3F3"/>
<path d="M51.7656 28.3088L53.9673 25.6694C55.3061 26.6969 56.8384 27.1221 58.2831 27.1221C59.0228 27.1221 59.3398 26.9268 59.3398 26.5905V26.5551C59.3398 26.201 58.9525 26.0058 57.6313 25.7405C54.8657 25.1735 52.4347 24.3765 52.4347 21.7551V21.7194C52.4347 19.3637 54.2667 17.5396 57.6668 17.5396C60.0447 17.5396 61.806 18.1062 63.2327 19.2399L61.2245 22.0385C60.0623 21.1881 58.6704 20.816 57.5254 20.816C56.9091 20.816 56.6273 21.0286 56.6273 21.33V21.3654C56.6273 21.7017 56.9619 21.9143 58.2655 22.1623C61.4183 22.747 63.5321 23.668 63.5321 26.1656V26.201C63.5321 28.8047 61.4008 30.3986 58.0893 30.3986C55.5879 30.3986 53.3334 29.6904 51.7656 28.3088Z" fill="#F3F3F3"/>
<path d="M63.5781 28.3086L65.7798 25.6692C67.1186 26.6968 68.6512 27.1219 70.0956 27.1219C70.8353 27.1219 71.1523 26.9267 71.1523 26.5903V26.5549C71.1523 26.2008 70.765 26.0056 69.4438 25.7403C66.6786 25.1733 64.2475 24.3764 64.2475 21.755V21.7192C64.2475 19.3635 66.0792 17.5394 69.4793 17.5394C71.8572 17.5394 73.6185 18.106 75.0452 19.2397L73.037 22.0383C71.8748 21.188 70.4832 20.8159 69.3382 20.8159C68.7216 20.8159 68.4398 21.0284 68.4398 21.3298V21.3652C68.4398 21.7016 68.7744 21.9141 70.078 22.1621C73.2308 22.7468 75.3449 23.6679 75.3449 26.1655V26.2008C75.3449 28.8045 73.2136 30.3984 69.9018 30.3984C67.4004 30.3984 65.1459 29.6903 63.5781 28.3086Z" fill="#F3F3F3"/>
<path d="M83.5347 21.2766H79.9062V17.7695H91.2851V21.2766H87.6566V30.1684H83.5347V21.2766Z" fill="#F3F3F3"/>
<path d="M92.0195 17.7695H98.0438C100.228 17.7695 101.619 18.3185 102.483 19.1865C103.222 19.9304 103.61 20.8515 103.61 22.1266V22.162C103.61 23.9688 102.677 25.2262 101.179 25.9528L104.051 30.1684H99.3471L97.0223 26.6259H96.1415V30.1684H92.0195V17.7695ZM97.9207 23.6678C98.907 23.6678 99.5061 23.2249 99.5061 22.4634V22.428C99.5061 21.6307 98.8895 21.2409 97.9383 21.2409H96.1415V23.6678H97.9207Z" fill="#F3F3F3"/>
<path d="M109.399 17.6812H113.486L118.682 30.1688H114.208L113.557 28.5035H109.241L108.607 30.1688H104.203L109.399 17.6812ZM112.535 25.5634L111.408 22.5522L110.28 25.5634H112.535Z" fill="#F3F3F3"/>
<path d="M123.364 17.7695H119.242V30.1684H123.364V17.7695Z" fill="#F3F3F3"/>
<path d="M125.09 17.7695H128.947L133.333 23.2426V17.7695H137.42V30.1684H133.756L129.176 24.447V30.1684H125.09V17.7695Z" fill="#F3F3F3"/>
<path d="M143.302 17.7695H139.18V30.1684H143.302V17.7695Z" fill="#F3F3F3"/>
<path d="M145.027 17.7695H148.885L153.271 23.2426V17.7695H157.358V30.1684H153.694L149.114 24.447V30.1684H145.027V17.7695Z" fill="#F3F3F3"/>
<path d="M158.383 24.0045V23.9688C158.383 20.2671 161.289 17.5039 165.182 17.5039C167.296 17.5039 169.005 18.2124 170.343 19.3814L168.036 22.18C167.225 21.4892 166.327 21.0994 165.306 21.0994C163.702 21.0994 162.54 22.3392 162.54 24.0222V24.0576C162.54 25.8109 163.756 27.0154 165.481 27.0154C166.186 27.0154 166.574 26.9092 166.891 26.732V25.4922H164.777V22.8351H170.748V28.5742C169.41 29.6725 167.542 30.434 165.306 30.434C161.466 30.434 158.383 27.848 158.383 24.0045Z" fill="#F3F3F3"/>
<path d="M49.9102 35.876H54.0321V44.7323H59.827V48.2745H49.9102V35.876Z" fill="#1C98D5"/>
<path d="M60.5469 35.3457H64.6864V37.914H60.5469V35.3457ZM60.6172 38.6048H64.6157V48.2755H60.6172V38.6048Z" fill="#1C98D5"/>
<path d="M66.6626 41.7036H65.5352V38.604H66.6626C66.6801 37.5765 66.9267 36.7438 67.5258 36.1418C68.1772 35.4863 69.0229 35.2207 70.3441 35.2207C71.5243 35.2207 72.2464 35.3272 72.7924 35.4863V38.0016C72.4051 37.9128 72.0174 37.8598 71.5067 37.8598C70.89 37.8598 70.5731 38.1077 70.5731 38.639V38.7101H72.7924V41.7036H70.661V48.2746H66.6626V41.7036Z" fill="#1C98D5"/>
<path d="M73.0234 43.4917V43.4563C73.0234 40.5693 75.0841 38.3731 77.9731 38.3731C81.3901 38.3731 82.9755 40.7642 82.9755 43.7043C82.9755 43.9169 82.9755 44.1648 82.9579 44.3774H76.7753C77.0571 45.2278 77.7262 45.6706 78.5894 45.6706C79.3115 45.6706 79.9106 45.3339 80.5445 44.6784L82.6937 46.3968C81.7426 47.6362 80.3862 48.5042 78.308 48.5042C75.1548 48.5042 73.0234 46.5026 73.0234 43.4917ZM79.3295 42.606C79.2412 41.6853 78.6953 41.1536 77.9907 41.1536C77.3213 41.1536 76.8457 41.7203 76.7222 42.606H79.3295Z" fill="#1C98D5"/>
<path d="M87.25 43.4928V43.4574C87.25 40.7476 89.3637 38.3915 92.499 38.3915C94.6131 38.3915 96.1102 39.4901 96.8503 41.0663L93.9789 42.6959C93.644 42.0758 93.2215 41.7214 92.5697 41.7214C91.7241 41.7214 91.0902 42.4656 91.0902 43.4221V43.4574C91.0902 44.4669 91.7241 45.1931 92.5169 45.1931C93.2215 45.1931 93.6264 44.839 94.0144 44.219L96.9207 45.8839C96.0574 47.4962 94.5955 48.523 92.3055 48.523C89.3817 48.523 87.25 46.2026 87.25 43.4928Z" fill="#1C98D5"/>
<path d="M97.5703 35.3457H101.569V39.8977C102.185 39.1008 103.155 38.3746 104.511 38.3746C106.536 38.3746 107.805 39.7205 107.805 41.899V48.2755H103.806V43.1922C103.806 42.3596 103.313 41.8817 102.714 41.8817C102.115 41.8817 101.569 42.3596 101.569 43.1922V48.2755H97.5703V35.3457Z" fill="#1C98D5"/>
<path d="M108.641 45.5283V45.4929C108.641 43.562 110.067 42.4817 112.305 42.4817C113.115 42.4817 114.154 42.6586 114.577 42.8358V42.6766C114.577 41.7909 114.031 41.2773 112.798 41.2773C111.811 41.2773 110.983 41.4899 110.138 41.8263L109.433 39.1519C110.543 38.7267 111.811 38.4434 113.484 38.4434C115.44 38.4434 116.708 38.8505 117.554 39.7008C118.276 40.427 118.558 41.3658 118.558 42.7651V48.2735H114.559V47.2994C113.89 48.0255 112.991 48.5038 111.793 48.5038C109.944 48.5038 108.641 47.4412 108.641 45.5283ZM114.612 44.6957V44.2885C114.383 44.1997 114.031 44.129 113.696 44.129C112.903 44.129 112.463 44.6072 112.463 45.2093V45.245C112.463 45.8116 112.868 46.1837 113.379 46.1837C114.083 46.1837 114.612 45.6167 114.612 44.6957Z" fill="#1C98D5"/>
<path d="M119.871 38.6037H123.87V39.9496C124.486 39.1526 125.455 38.373 126.811 38.373C128.837 38.373 130.105 39.7193 130.105 41.8978V48.2743H126.107V43.191C126.107 42.3584 125.613 41.8805 125.015 41.8805C124.416 41.8805 123.87 42.3584 123.87 43.191V48.2743H119.871V38.6037Z" fill="#1C98D5"/>
<path d="M131.086 49.9396L132.319 47.5128C133.394 48.0794 134.468 48.4338 135.789 48.4338C137.287 48.4338 138.079 47.6546 138.079 46.3087V46.0247C137.533 46.6447 136.635 47.3532 135.296 47.3532C132.812 47.3532 131.016 45.5822 131.016 42.9077V42.872C131.016 40.1622 132.848 38.3731 135.067 38.3731C136.476 38.3731 137.304 38.9047 138.009 39.6309V38.6037H142.007V45.8298C142.007 47.6189 141.638 48.8413 140.757 49.727C139.894 50.5947 138.573 51.144 136.423 51.144C134.292 51.144 132.636 50.7189 131.086 49.9396ZM138.097 42.89V42.8543C138.097 42.022 137.463 41.3489 136.494 41.3489C135.507 41.3489 134.891 42.0397 134.891 42.89V42.9254C134.891 43.7577 135.525 44.4131 136.494 44.4131C137.48 44.4131 138.097 43.74 138.097 42.89Z" fill="#1C98D5"/>
<path d="M143.32 35.3457H147.46V37.914H143.32V35.3457ZM143.391 38.6048H147.389V48.2755H143.391V38.6048Z" fill="#1C98D5"/>
<path d="M148.762 38.6037H152.76V39.9496C153.376 39.1526 154.345 38.373 155.702 38.373C157.727 38.373 158.996 39.7193 158.996 41.8978V48.2743H154.997V43.191C154.997 42.3584 154.504 41.8805 153.905 41.8805C153.306 41.8805 152.76 42.3584 152.76 43.191V48.2743H148.762V38.6037Z" fill="#1C98D5"/>
<path d="M159.977 49.9396L161.21 47.5127C162.284 48.0794 163.359 48.4338 164.68 48.4338C166.177 48.4338 166.97 47.6546 166.97 46.3087V46.0246C166.424 46.6447 165.525 47.3532 164.186 47.3532C161.703 47.3532 159.906 45.5821 159.906 42.9077V42.872C159.906 40.1621 161.739 38.373 163.957 38.373C165.367 38.373 166.195 38.9047 166.899 39.6309V38.6037H170.898V45.8298C170.898 47.6189 170.528 48.8413 169.647 49.727C168.784 50.5947 167.463 51.144 165.314 51.144C163.183 51.144 161.527 50.7188 159.977 49.9396ZM166.988 42.89V42.8543C166.988 42.022 166.353 41.3489 165.385 41.3489C164.398 41.3489 163.782 42.0397 163.782 42.89V42.9254C163.782 43.7577 164.415 44.4131 165.385 44.4131C166.371 44.4131 166.988 43.74 166.988 42.89Z" fill="#1C98D5"/>
<path d="M209.454 0.118164L201.562 5.99022L204.565 15.3467H214.34L217.381 6.00224L209.454 0.118164Z" fill="#1C98D5"/>
<path d="M191.95 31.6513H182.174L179.172 22.2948L187.063 16.4227L194.99 22.3072L191.95 31.6513Z" fill="#1C98D5"/>
<path d="M203.518 15.6756L195.608 21.4515L187.711 15.6541L190.665 6.24023L200.518 6.3177L203.518 15.6756Z" fill="#1C98D5"/>
<path d="M223.949 22.2721L226.99 31.6166H236.765L239.768 22.2597L231.877 16.3877L223.949 22.2721Z" fill="#1C98D5"/>
<path d="M215.422 15.6419L223.332 21.4178L231.229 15.6203L228.274 6.20651L218.421 6.28433L215.422 15.6419Z" fill="#1C98D5"/>
<path d="M201.504 58.2859L209.417 64.1898L217.322 58.3369L214.343 48.9729L204.567 48.9492L201.504 58.2859Z" fill="#1C98D5"/>
<path d="M226.996 32.6978L236.772 32.7215L239.752 42.085L231.846 47.9384L223.934 42.0345L226.996 32.6978Z" fill="#1C98D5"/>
<path d="M215.391 48.646L223.314 42.8896L231.197 48.7058L228.22 58.1126L218.368 58.011L215.391 48.646Z" fill="#1C98D5"/>
<path d="M191.957 32.6458L182.181 32.6221L179.156 41.9712L187.034 47.8623L194.975 41.997L191.957 32.6458Z" fill="#1C98D5"/>
<path d="M203.486 48.6501L195.59 42.8555L187.68 48.6334L190.611 58.0543L200.464 58.0006L203.486 48.6501Z" fill="#1C98D5"/>
</g>
<defs>
<clipPath id="clip0_1347_230">
<rect width="242.286" height="64" fill="white"/>
</clipPath>
</defs>
</svg>
