<svg width="1760" height="100" viewBox="0 0 1760 100" fill="none" xmlns="http://www.w3.org/2000/svg">
<g clip-path="url(#clip0_1347_229)">
<path d="M6.40327 35.6812L1.20703 48.1688H5.6104L6.24462 46.5038H10.5604L11.2119 48.1688H15.6863L10.49 35.6812H6.40327ZM8.41113 40.5522L9.53853 43.5634H7.28408L8.41113 40.5522Z" fill="#F3F3F3"/>
<path d="M15.1562 42.0035V41.9682C15.1562 38.2665 18.027 35.5029 21.7089 35.5029C24.4213 35.5029 26.2533 36.8315 27.2924 38.7267L23.893 40.728C23.435 39.8427 22.7832 39.2226 21.6558 39.2226C20.2642 39.2226 19.3482 40.4451 19.3482 41.9328V41.9682C19.3482 43.5801 20.2994 44.7137 21.6558 44.7137C22.8187 44.7137 23.4705 44.076 23.9809 43.1549L27.3807 45.0855C26.3416 46.9276 24.6151 48.4331 21.5499 48.4331C18.1329 48.4331 15.1562 45.8474 15.1562 42.0035Z" fill="#F3F3F3"/>
<path d="M27.6133 42.0035V41.9682C27.6133 38.2665 30.4844 35.5029 34.1663 35.5029C36.8791 35.5029 38.7107 36.8315 39.7501 38.7267L36.3504 40.728C35.8924 39.8427 35.2406 39.2226 34.1132 39.2226C32.7216 39.2226 31.8056 40.4451 31.8056 41.9328V41.9682C31.8056 43.5801 32.7568 44.7137 34.1132 44.7137C35.2757 44.7137 35.9279 44.076 36.4387 43.1549L39.8381 45.0855C38.799 46.9276 37.0729 48.4331 34.0073 48.4331C30.5902 48.4331 27.6133 45.8474 27.6133 42.0035Z" fill="#F3F3F3"/>
<path d="M40.7148 35.7695H51.2311V39.1702H44.7661V40.428H50.7907V43.4211H44.7661V44.7674H51.3191V48.1684H40.7148V35.7695Z" fill="#F3F3F3"/>
<path d="M51.7656 46.3088L53.9673 43.6694C55.3061 44.6969 56.8384 45.1221 58.2831 45.1221C59.0228 45.1221 59.3398 44.9268 59.3398 44.5905V44.5551C59.3398 44.201 58.9525 44.0058 57.6313 43.7405C54.8657 43.1735 52.4347 42.3765 52.4347 39.7551V39.7194C52.4347 37.3637 54.2667 35.5396 57.6668 35.5396C60.0447 35.5396 61.806 36.1062 63.2327 37.2399L61.2245 40.0385C60.0623 39.1881 58.6704 38.816 57.5254 38.816C56.9091 38.816 56.6273 39.0286 56.6273 39.33V39.3654C56.6273 39.7017 56.9619 39.9143 58.2655 40.1623C61.4183 40.747 63.5321 41.668 63.5321 44.1656V44.201C63.5321 46.8047 61.4008 48.3986 58.0893 48.3986C55.5879 48.3986 53.3334 47.6904 51.7656 46.3088Z" fill="#F3F3F3"/>
<path d="M63.5781 46.3086L65.7798 43.6692C67.1186 44.6968 68.6512 45.1219 70.0956 45.1219C70.8353 45.1219 71.1523 44.9267 71.1523 44.5903V44.5549C71.1523 44.2008 70.765 44.0056 69.4438 43.7403C66.6786 43.1733 64.2475 42.3764 64.2475 39.755V39.7192C64.2475 37.3635 66.0792 35.5394 69.4793 35.5394C71.8572 35.5394 73.6185 36.106 75.0452 37.2397L73.037 40.0383C71.8748 39.188 70.4832 38.8159 69.3382 38.8159C68.7216 38.8159 68.4398 39.0284 68.4398 39.3298V39.3652C68.4398 39.7016 68.7744 39.9141 70.078 40.1621C73.2308 40.7468 75.3449 41.6679 75.3449 44.1655V44.2008C75.3449 46.8045 73.2136 48.3984 69.9018 48.3984C67.4004 48.3984 65.1459 47.6903 63.5781 46.3086Z" fill="#F3F3F3"/>
<path d="M83.5347 39.2766H79.9062V35.7695H91.2851V39.2766H87.6566V48.1684H83.5347V39.2766Z" fill="#F3F3F3"/>
<path d="M92.0195 35.7695H98.0438C100.228 35.7695 101.619 36.3185 102.483 37.1865C103.222 37.9304 103.61 38.8515 103.61 40.1266V40.162C103.61 41.9688 102.677 43.2262 101.179 43.9528L104.051 48.1684H99.3471L97.0223 44.6259H96.1415V48.1684H92.0195V35.7695ZM97.9207 41.6678C98.907 41.6678 99.5061 41.2249 99.5061 40.4634V40.428C99.5061 39.6307 98.8895 39.2409 97.9383 39.2409H96.1415V41.6678H97.9207Z" fill="#F3F3F3"/>
<path d="M109.399 35.6812H113.486L118.682 48.1688H114.208L113.557 46.5035H109.241L108.607 48.1688H104.203L109.399 35.6812ZM112.535 43.5634L111.408 40.5522L110.28 43.5634H112.535Z" fill="#F3F3F3"/>
<path d="M123.364 35.7695H119.242V48.1684H123.364V35.7695Z" fill="#F3F3F3"/>
<path d="M125.09 35.7695H128.947L133.333 41.2426V35.7695H137.42V48.1684H133.756L129.176 42.447V48.1684H125.09V35.7695Z" fill="#F3F3F3"/>
<path d="M143.302 35.7695H139.18V48.1684H143.302V35.7695Z" fill="#F3F3F3"/>
<path d="M145.027 35.7695H148.885L153.271 41.2426V35.7695H157.358V48.1684H153.694L149.114 42.447V48.1684H145.027V35.7695Z" fill="#F3F3F3"/>
<path d="M158.383 42.0045V41.9688C158.383 38.2671 161.289 35.5039 165.182 35.5039C167.296 35.5039 169.005 36.2124 170.343 37.3814L168.036 40.18C167.225 39.4892 166.327 39.0994 165.306 39.0994C163.702 39.0994 162.54 40.3392 162.54 42.0222V42.0576C162.54 43.8109 163.756 45.0154 165.481 45.0154C166.186 45.0154 166.574 44.9092 166.891 44.732V43.4922H164.777V40.8351H170.748V46.5742C169.41 47.6725 167.542 48.434 165.306 48.434C161.466 48.434 158.383 45.848 158.383 42.0045Z" fill="#F3F3F3"/>
<path d="M49.9102 53.876H54.0321V62.7323H59.827V66.2745H49.9102V53.876Z" fill="#1C98D5"/>
<path d="M60.5469 53.3457H64.6864V55.914H60.5469V53.3457ZM60.6172 56.6048H64.6157V66.2755H60.6172V56.6048Z" fill="#1C98D5"/>
<path d="M66.6626 59.7036H65.5352V56.604H66.6626C66.6801 55.5765 66.9267 54.7438 67.5258 54.1418C68.1772 53.4863 69.0229 53.2207 70.3441 53.2207C71.5243 53.2207 72.2464 53.3272 72.7924 53.4863V56.0016C72.4051 55.9128 72.0174 55.8598 71.5067 55.8598C70.89 55.8598 70.5731 56.1077 70.5731 56.639V56.7101H72.7924V59.7036H70.661V66.2746H66.6626V59.7036Z" fill="#1C98D5"/>
<path d="M73.0234 61.4917V61.4563C73.0234 58.5693 75.0841 56.3731 77.9731 56.3731C81.3901 56.3731 82.9755 58.7642 82.9755 61.7043C82.9755 61.9169 82.9755 62.1648 82.9579 62.3774H76.7753C77.0571 63.2278 77.7262 63.6706 78.5894 63.6706C79.3115 63.6706 79.9106 63.3339 80.5445 62.6784L82.6937 64.3968C81.7426 65.6362 80.3862 66.5042 78.308 66.5042C75.1548 66.5042 73.0234 64.5026 73.0234 61.4917ZM79.3295 60.606C79.2412 59.6853 78.6953 59.1536 77.9907 59.1536C77.3213 59.1536 76.8457 59.7203 76.7222 60.606H79.3295Z" fill="#1C98D5"/>
<path d="M87.25 61.4928V61.4574C87.25 58.7476 89.3637 56.3915 92.499 56.3915C94.6131 56.3915 96.1102 57.4901 96.8503 59.0663L93.9789 60.6959C93.644 60.0758 93.2215 59.7214 92.5697 59.7214C91.7241 59.7214 91.0902 60.4656 91.0902 61.4221V61.4574C91.0902 62.4669 91.7241 63.1931 92.5169 63.1931C93.2215 63.1931 93.6264 62.839 94.0144 62.219L96.9207 63.8839C96.0574 65.4962 94.5955 66.523 92.3055 66.523C89.3817 66.523 87.25 64.2026 87.25 61.4928Z" fill="#1C98D5"/>
<path d="M97.5703 53.3457H101.569V57.8977C102.185 57.1008 103.155 56.3746 104.511 56.3746C106.536 56.3746 107.805 57.7205 107.805 59.899V66.2755H103.806V61.1922C103.806 60.3596 103.313 59.8817 102.714 59.8817C102.115 59.8817 101.569 60.3596 101.569 61.1922V66.2755H97.5703V53.3457Z" fill="#1C98D5"/>
<path d="M108.641 63.5283V63.4929C108.641 61.562 110.067 60.4817 112.305 60.4817C113.115 60.4817 114.154 60.6586 114.577 60.8358V60.6766C114.577 59.7909 114.031 59.2773 112.798 59.2773C111.811 59.2773 110.983 59.4899 110.138 59.8263L109.433 57.1519C110.543 56.7267 111.811 56.4434 113.484 56.4434C115.44 56.4434 116.708 56.8505 117.554 57.7008C118.276 58.427 118.558 59.3658 118.558 60.7651V66.2735H114.559V65.2994C113.89 66.0255 112.991 66.5038 111.793 66.5038C109.944 66.5038 108.641 65.4412 108.641 63.5283ZM114.612 62.6957V62.2885C114.383 62.1997 114.031 62.129 113.696 62.129C112.903 62.129 112.463 62.6072 112.463 63.2093V63.245C112.463 63.8116 112.868 64.1837 113.379 64.1837C114.083 64.1837 114.612 63.6167 114.612 62.6957Z" fill="#1C98D5"/>
<path d="M119.871 56.6037H123.87V57.9496C124.486 57.1526 125.455 56.373 126.811 56.373C128.837 56.373 130.105 57.7193 130.105 59.8978V66.2743H126.107V61.191C126.107 60.3584 125.613 59.8805 125.015 59.8805C124.416 59.8805 123.87 60.3584 123.87 61.191V66.2743H119.871V56.6037Z" fill="#1C98D5"/>
<path d="M131.086 67.9396L132.319 65.5128C133.394 66.0794 134.468 66.4338 135.789 66.4338C137.287 66.4338 138.079 65.6546 138.079 64.3087V64.0247C137.533 64.6447 136.635 65.3532 135.296 65.3532C132.812 65.3532 131.016 63.5822 131.016 60.9077V60.872C131.016 58.1622 132.848 56.3731 135.067 56.3731C136.476 56.3731 137.304 56.9047 138.009 57.6309V56.6037H142.007V63.8298C142.007 65.6189 141.638 66.8413 140.757 67.727C139.894 68.5947 138.573 69.144 136.423 69.144C134.292 69.144 132.636 68.7189 131.086 67.9396ZM138.097 60.89V60.8543C138.097 60.022 137.463 59.3489 136.494 59.3489C135.507 59.3489 134.891 60.0397 134.891 60.89V60.9254C134.891 61.7577 135.525 62.4131 136.494 62.4131C137.48 62.4131 138.097 61.74 138.097 60.89Z" fill="#1C98D5"/>
<path d="M143.32 53.3457H147.46V55.914H143.32V53.3457ZM143.391 56.6048H147.389V66.2755H143.391V56.6048Z" fill="#1C98D5"/>
<path d="M148.762 56.6037H152.76V57.9496C153.376 57.1526 154.345 56.373 155.702 56.373C157.727 56.373 158.996 57.7193 158.996 59.8978V66.2743H154.997V61.191C154.997 60.3584 154.504 59.8805 153.905 59.8805C153.306 59.8805 152.76 60.3584 152.76 61.191V66.2743H148.762V56.6037Z" fill="#1C98D5"/>
<path d="M159.977 67.9396L161.21 65.5127C162.284 66.0794 163.359 66.4338 164.68 66.4338C166.177 66.4338 166.97 65.6546 166.97 64.3087V64.0246C166.424 64.6447 165.525 65.3532 164.186 65.3532C161.703 65.3532 159.906 63.5821 159.906 60.9077V60.872C159.906 58.1621 161.739 56.373 163.957 56.373C165.367 56.373 166.195 56.9047 166.899 57.6309V56.6037H170.898V63.8298C170.898 65.6189 170.528 66.8413 169.647 67.727C168.784 68.5947 167.463 69.144 165.314 69.144C163.183 69.144 161.527 68.7188 159.977 67.9396ZM166.988 60.89V60.8543C166.988 60.022 166.353 59.3489 165.385 59.3489C164.398 59.3489 163.782 60.0397 163.782 60.89V60.9254C163.782 61.7577 164.415 62.4131 165.385 62.4131C166.371 62.4131 166.988 61.74 166.988 60.89Z" fill="#1C98D5"/>
<path d="M209.454 18.1182L201.562 23.9902L204.565 33.3467H214.34L217.381 24.0022L209.454 18.1182Z" fill="#1C98D5"/>
<path d="M191.95 49.6513H182.174L179.172 40.2948L187.063 34.4227L194.99 40.3072L191.95 49.6513Z" fill="#1C98D5"/>
<path d="M203.518 33.6756L195.608 39.4515L187.711 33.6541L190.665 24.2402L200.518 24.3177L203.518 33.6756Z" fill="#1C98D5"/>
<path d="M223.949 40.2721L226.99 49.6166H236.765L239.768 40.2597L231.877 34.3877L223.949 40.2721Z" fill="#1C98D5"/>
<path d="M215.422 33.6419L223.332 39.4178L231.229 33.6203L228.274 24.2065L218.421 24.2843L215.422 33.6419Z" fill="#1C98D5"/>
<path d="M201.504 76.2859L209.417 82.1898L217.322 76.3369L214.343 66.9729L204.567 66.9492L201.504 76.2859Z" fill="#1C98D5"/>
<path d="M226.996 50.6978L236.772 50.7215L239.752 60.085L231.846 65.9384L223.934 60.0345L226.996 50.6978Z" fill="#1C98D5"/>
<path d="M215.391 66.646L223.314 60.8896L231.197 66.7058L228.22 76.1126L218.368 76.011L215.391 66.646Z" fill="#1C98D5"/>
<path d="M191.957 50.6458L182.181 50.6221L179.156 59.9712L187.034 65.8623L194.975 59.997L191.957 50.6458Z" fill="#1C98D5"/>
<path d="M203.486 66.6501L195.59 60.8555L187.68 66.6334L190.611 76.0543L200.464 76.0006L203.486 66.6501Z" fill="#1C98D5"/>
</g>
<path d="M348.3 56.74C346.273 56.74 344.58 56.0467 343.22 54.66C341.86 53.2733 341.18 51.5667 341.18 49.54V49.5C341.18 47.4733 341.86 45.76 343.22 44.36C344.58 42.96 346.3 42.26 348.38 42.26C349.593 42.26 350.627 42.4467 351.48 42.82C352.333 43.1933 353.133 43.7333 353.88 44.44L352.3 46.26C351.047 45.1133 349.733 44.54 348.36 44.54C347.053 44.54 345.96 45.02 345.08 45.98C344.2 46.9267 343.76 48.0867 343.76 49.46V49.5C343.76 50.8867 344.2 52.06 345.08 53.02C345.96 53.98 347.06 54.46 348.38 54.46C349.18 54.46 349.887 54.3133 350.5 54.02C351.113 53.7267 351.747 53.2733 352.4 52.66L353.98 54.26C353.22 55.0733 352.393 55.6933 351.5 56.12C350.607 56.5333 349.54 56.74 348.3 56.74ZM361.325 56.74C359.725 56.74 358.392 56.2133 357.325 55.16C356.258 54.0933 355.725 52.8 355.725 51.28V51.24C355.725 49.7067 356.265 48.4067 357.345 47.34C358.425 46.26 359.765 45.72 361.365 45.72C362.978 45.72 364.318 46.2533 365.385 47.32C366.452 48.3733 366.985 49.6667 366.985 51.2V51.24C366.985 52.7467 366.445 54.04 365.365 55.12C364.285 56.2 362.938 56.74 361.325 56.74ZM361.365 54.62C362.325 54.62 363.098 54.3 363.685 53.66C364.272 53.0067 364.565 52.2133 364.565 51.28V51.24C364.565 50.2933 364.258 49.4933 363.645 48.84C363.032 48.1733 362.258 47.84 361.325 47.84C360.378 47.84 359.612 48.1667 359.025 48.82C358.438 49.46 358.145 50.2533 358.145 51.2V51.24C358.145 52.1733 358.452 52.9733 359.065 53.64C359.678 54.2933 360.445 54.62 361.365 54.62ZM373.09 56.72C371.903 56.72 370.976 56.36 370.31 55.64C369.656 54.9067 369.33 53.9133 369.33 52.66V45.94H371.75V51.94C371.75 52.7667 371.943 53.4 372.33 53.84C372.73 54.28 373.29 54.5 374.01 54.5C374.73 54.5 375.303 54.2733 375.73 53.82C376.17 53.3533 376.39 52.7133 376.39 51.9V45.94H378.83V56.5H376.39V54.86C375.536 56.1 374.436 56.72 373.09 56.72ZM381.832 56.5V45.94H384.272V48.32C385.019 46.52 386.265 45.66 388.012 45.74V48.3H387.872C386.765 48.3 385.885 48.66 385.232 49.38C384.592 50.0867 384.272 51.12 384.272 52.48V56.5H381.832ZM393.734 56.7C392.08 56.7 390.587 56.1733 389.254 55.12L390.334 53.48C391.52 54.3467 392.674 54.78 393.794 54.78C394.314 54.78 394.714 54.68 394.994 54.48C395.287 54.2667 395.434 53.9867 395.434 53.64V53.6C395.434 53.4133 395.387 53.2533 395.294 53.12C395.2 52.9867 395.014 52.8533 394.734 52.72C394.454 52.5867 394.247 52.5 394.114 52.46C393.994 52.4067 393.707 52.3133 393.254 52.18C393.174 52.1533 393.114 52.1333 393.074 52.12C392.607 52 392.207 51.8733 391.874 51.74C391.554 51.6067 391.214 51.4267 390.854 51.2C390.507 50.96 390.24 50.66 390.054 50.3C389.867 49.94 389.774 49.52 389.774 49.04V49C389.774 48.0133 390.127 47.2267 390.834 46.64C391.554 46.0533 392.454 45.76 393.534 45.76C394.907 45.76 396.2 46.16 397.414 46.96L396.454 48.68C395.36 48.0133 394.367 47.68 393.474 47.68C393.02 47.68 392.66 47.78 392.394 47.98C392.127 48.18 391.994 48.4267 391.994 48.72V48.76C391.994 49 392.12 49.22 392.374 49.42C392.627 49.6067 392.887 49.7533 393.154 49.86C393.434 49.9667 393.84 50.1 394.374 50.26C394.84 50.4067 395.234 50.5533 395.554 50.7C395.874 50.8333 396.207 51.02 396.554 51.26C396.914 51.5 397.187 51.7933 397.374 52.14C397.56 52.4867 397.654 52.8867 397.654 53.34V53.38C397.654 54.4467 397.287 55.2667 396.554 55.84C395.82 56.4133 394.88 56.7 393.734 56.7ZM404.973 56.74C403.427 56.74 402.133 56.2333 401.093 55.22C400.067 54.1933 399.553 52.8733 399.553 51.26V51.22C399.553 49.6733 400.04 48.3733 401.013 47.32C401.987 46.2533 403.22 45.72 404.713 45.72C406.313 45.72 407.553 46.2667 408.433 47.36C409.327 48.44 409.773 49.7867 409.773 51.4C409.773 51.5333 409.76 51.76 409.733 52.08H401.973C402.107 52.9333 402.447 53.5933 402.993 54.06C403.54 54.5267 404.213 54.76 405.013 54.76C406.04 54.76 406.993 54.34 407.873 53.5L409.293 54.76C408.173 56.08 406.733 56.74 404.973 56.74ZM401.953 50.48H407.373C407.293 49.6667 407.02 49 406.553 48.48C406.087 47.96 405.467 47.7 404.693 47.7C403.947 47.7 403.327 47.9533 402.833 48.46C402.353 48.9667 402.06 49.64 401.953 50.48ZM415.824 56.7C414.17 56.7 412.677 56.1733 411.344 55.12L412.424 53.48C413.61 54.3467 414.764 54.78 415.884 54.78C416.404 54.78 416.804 54.68 417.084 54.48C417.377 54.2667 417.524 53.9867 417.524 53.64V53.6C417.524 53.4133 417.477 53.2533 417.384 53.12C417.29 52.9867 417.104 52.8533 416.824 52.72C416.544 52.5867 416.337 52.5 416.204 52.46C416.084 52.4067 415.797 52.3133 415.344 52.18C415.264 52.1533 415.204 52.1333 415.164 52.12C414.697 52 414.297 51.8733 413.964 51.74C413.644 51.6067 413.304 51.4267 412.944 51.2C412.597 50.96 412.33 50.66 412.144 50.3C411.957 49.94 411.864 49.52 411.864 49.04V49C411.864 48.0133 412.217 47.2267 412.924 46.64C413.644 46.0533 414.544 45.76 415.624 45.76C416.997 45.76 418.29 46.16 419.504 46.96L418.544 48.68C417.45 48.0133 416.457 47.68 415.564 47.68C415.11 47.68 414.75 47.78 414.484 47.98C414.217 48.18 414.084 48.4267 414.084 48.72V48.76C414.084 49 414.21 49.22 414.464 49.42C414.717 49.6067 414.977 49.7533 415.244 49.86C415.524 49.9667 415.93 50.1 416.464 50.26C416.93 50.4067 417.324 50.5533 417.644 50.7C417.964 50.8333 418.297 51.02 418.644 51.26C419.004 51.5 419.277 51.7933 419.464 52.14C419.65 52.4867 419.744 52.8867 419.744 53.34V53.38C419.744 54.4467 419.377 55.2667 418.644 55.84C417.91 56.4133 416.97 56.7 415.824 56.7Z" fill="#F3F3F3"/>
<path d="M428.407 47.5897C428.852 47.2629 429.478 47.3582 429.806 47.8026L429.808 47.8055C429.81 47.808 429.813 47.812 429.816 47.8172C429.824 47.8278 429.836 47.8441 429.852 47.8651C429.883 47.9074 429.931 47.9705 429.991 48.0506C430.112 48.2111 430.288 48.4413 430.504 48.7176C430.936 49.2717 431.526 50.0077 432.162 50.7401C432.802 51.4775 433.47 52.1894 434.058 52.7088C434.353 52.9695 434.605 53.1605 434.805 53.2811C434.9 53.3385 434.964 53.3679 435 53.3827C435.036 53.3679 435.1 53.3383 435.195 53.2811C435.395 53.1605 435.648 52.9693 435.942 52.7088C436.53 52.1894 437.198 51.4774 437.838 50.7401C438.474 50.0078 439.064 49.2716 439.496 48.7176C439.712 48.4414 439.888 48.211 440.009 48.0506C440.069 47.9706 440.117 47.9073 440.148 47.8651C440.164 47.8442 440.176 47.8277 440.184 47.8172C440.187 47.8122 440.191 47.8079 440.192 47.8055L440.194 47.8026C440.522 47.3582 441.148 47.2633 441.593 47.5907C442.037 47.918 442.132 48.5435 441.806 48.9881L441.804 48.9901L441.801 48.994C441.799 48.9971 441.795 49.0021 441.791 49.0077C441.782 49.0197 441.769 49.0378 441.752 49.0604C441.718 49.1058 441.669 49.1722 441.606 49.2557C441.479 49.4233 441.296 49.6623 441.073 49.9481C440.628 50.5188 440.014 51.2833 439.348 52.0506C438.686 52.8129 437.952 53.6014 437.267 54.2069C436.925 54.5085 436.572 54.7865 436.228 54.994C435.911 55.1848 435.476 55.3952 435 55.3953C434.524 55.3954 434.088 55.1849 433.772 54.994C433.427 54.7865 433.075 54.5085 432.733 54.2069C432.048 53.6014 431.314 52.8131 430.652 52.0506C429.986 51.2832 429.372 50.5189 428.927 49.9481C428.704 49.6622 428.521 49.4233 428.395 49.2557C428.331 49.1721 428.282 49.1059 428.248 49.0604C428.231 49.0377 428.218 49.0197 428.209 49.0077C428.205 49.0019 428.202 48.9972 428.199 48.994L428.196 48.9901L428.194 48.9881C427.867 48.5435 427.963 47.9171 428.407 47.5897Z" fill="#F3F3F3"/>
<path d="M480.8 56.5V42.5H491.18V44.7H483.26V48.34H490.28V50.56H483.26V54.3H491.28V56.5H480.8ZM496.958 56.72C495.905 56.72 495.012 56.4333 494.278 55.86C493.558 55.2867 493.198 54.4867 493.198 53.46V53.42C493.198 52.3 493.592 51.4533 494.378 50.88C495.178 50.3067 496.245 50.02 497.578 50.02C498.552 50.02 499.498 50.1667 500.418 50.46V50.2C500.418 48.6667 499.545 47.9 497.798 47.9C496.838 47.9 495.832 48.12 494.778 48.56L494.118 46.66C495.465 46.0867 496.798 45.8 498.118 45.8C499.692 45.8 500.858 46.1933 501.618 46.98C502.378 47.74 502.758 48.8267 502.758 50.24V56.5H500.398V55.18C499.545 56.2067 498.398 56.72 496.958 56.72ZM497.638 54.96C498.452 54.96 499.125 54.7533 499.658 54.34C500.192 53.9133 500.458 53.3667 500.458 52.7V51.98C499.738 51.7 498.938 51.56 498.058 51.56C497.272 51.56 496.658 51.7133 496.218 52.02C495.792 52.3267 495.578 52.76 495.578 53.32V53.36C495.578 53.8533 495.772 54.2467 496.158 54.54C496.545 54.82 497.038 54.96 497.638 54.96ZM505.637 56.5V45.94H508.077V48.32C508.823 46.52 510.07 45.66 511.817 45.74V48.3H511.677C510.57 48.3 509.69 48.66 509.037 49.38C508.397 50.0867 508.077 51.12 508.077 52.48V56.5H505.637ZM513.898 56.5V45.94H516.338V47.56C517.218 46.3333 518.318 45.72 519.638 45.72C520.825 45.72 521.745 46.0867 522.398 46.82C523.065 47.54 523.398 48.52 523.398 49.76V56.5H520.978V50.5C520.978 49.6733 520.778 49.04 520.378 48.6C519.992 48.1467 519.438 47.92 518.718 47.92C517.998 47.92 517.418 48.1533 516.978 48.62C516.552 49.0867 516.338 49.7267 516.338 50.54V56.5H513.898ZM534.857 56.58L531.417 45.94H533.917L536.037 53.18L538.377 45.9H540.457L542.797 53.18L544.957 45.94H547.397L543.937 56.58H541.757L539.397 49.36L537.017 56.58H534.857ZM549.523 56.5V41.9H551.963V47.56C552.843 46.3333 553.943 45.72 555.263 45.72C556.45 45.72 557.37 46.0867 558.023 46.82C558.69 47.54 559.023 48.52 559.023 49.76V56.5H556.603V50.5C556.603 49.6733 556.403 49.04 556.003 48.6C555.617 48.1467 555.063 47.92 554.343 47.92C553.623 47.92 553.043 48.1533 552.603 48.62C552.177 49.0867 551.963 49.7267 551.963 50.54V56.5H549.523ZM561.986 44.32V42.02H564.586V44.32H561.986ZM562.066 56.5V45.94H564.506V56.5H562.066ZM567.788 56.5V41.9H570.228V56.5H567.788ZM578.231 56.74C576.684 56.74 575.391 56.2333 574.351 55.22C573.324 54.1933 572.811 52.8733 572.811 51.26V51.22C572.811 49.6733 573.298 48.3733 574.271 47.32C575.244 46.2533 576.478 45.72 577.971 45.72C579.571 45.72 580.811 46.2667 581.691 47.36C582.584 48.44 583.031 49.7867 583.031 51.4C583.031 51.5333 583.018 51.76 582.991 52.08H575.231C575.364 52.9333 575.704 53.5933 576.251 54.06C576.798 54.5267 577.471 54.76 578.271 54.76C579.298 54.76 580.251 54.34 581.131 53.5L582.551 54.76C581.431 56.08 579.991 56.74 578.231 56.74ZM575.211 50.48H580.631C580.551 49.6667 580.278 49 579.811 48.48C579.344 47.96 578.724 47.7 577.951 47.7C577.204 47.7 576.584 47.9533 576.091 48.46C575.611 48.9667 575.318 49.64 575.211 50.48ZM596.018 53.78L598.778 45.94H601.298L597.098 56.78C596.671 57.8733 596.198 58.64 595.678 59.08C595.158 59.5333 594.471 59.76 593.618 59.76C592.724 59.76 591.891 59.54 591.118 59.1L591.938 57.32C592.444 57.5867 592.918 57.72 593.358 57.72C593.718 57.72 594.004 57.6267 594.218 57.44C594.444 57.2667 594.658 56.96 594.858 56.52L590.458 45.94H593.058L596.018 53.78ZM607.786 56.74C606.186 56.74 604.853 56.2133 603.786 55.16C602.719 54.0933 602.186 52.8 602.186 51.28V51.24C602.186 49.7067 602.726 48.4067 603.806 47.34C604.886 46.26 606.226 45.72 607.826 45.72C609.439 45.72 610.779 46.2533 611.846 47.32C612.913 48.3733 613.446 49.6667 613.446 51.2V51.24C613.446 52.7467 612.906 54.04 611.826 55.12C610.746 56.2 609.399 56.74 607.786 56.74ZM607.826 54.62C608.786 54.62 609.559 54.3 610.146 53.66C610.733 53.0067 611.026 52.2133 611.026 51.28V51.24C611.026 50.2933 610.719 49.4933 610.106 48.84C609.493 48.1733 608.719 47.84 607.786 47.84C606.839 47.84 606.073 48.1667 605.486 48.82C604.899 49.46 604.606 50.2533 604.606 51.2V51.24C604.606 52.1733 604.913 52.9733 605.526 53.64C606.139 54.2933 606.906 54.62 607.826 54.62ZM619.551 56.72C618.364 56.72 617.437 56.36 616.771 55.64C616.117 54.9067 615.791 53.9133 615.791 52.66V45.94H618.211V51.94C618.211 52.7667 618.404 53.4 618.791 53.84C619.191 54.28 619.751 54.5 620.471 54.5C621.191 54.5 621.764 54.2733 622.191 53.82C622.631 53.3533 622.851 52.7133 622.851 51.9V45.94H625.291V56.5H622.851V54.86C621.997 56.1 620.897 56.72 619.551 56.72ZM634.429 56.5V41.9H636.869V56.5H634.429ZM644.872 56.74C643.325 56.74 642.032 56.2333 640.992 55.22C639.965 54.1933 639.452 52.8733 639.452 51.26V51.22C639.452 49.6733 639.938 48.3733 640.912 47.32C641.885 46.2533 643.118 45.72 644.612 45.72C646.212 45.72 647.452 46.2667 648.332 47.36C649.225 48.44 649.672 49.7867 649.672 51.4C649.672 51.5333 649.658 51.76 649.632 52.08H641.872C642.005 52.9333 642.345 53.5933 642.892 54.06C643.438 54.5267 644.112 54.76 644.912 54.76C645.938 54.76 646.892 54.34 647.772 53.5L649.192 54.76C648.072 56.08 646.632 56.74 644.872 56.74ZM641.852 50.48H647.272C647.192 49.6667 646.918 49 646.452 48.48C645.985 47.96 645.365 47.7 644.592 47.7C643.845 47.7 643.225 47.9533 642.732 48.46C642.252 48.9667 641.958 49.64 641.852 50.48ZM655.142 56.72C654.089 56.72 653.195 56.4333 652.462 55.86C651.742 55.2867 651.382 54.4867 651.382 53.46V53.42C651.382 52.3 651.775 51.4533 652.562 50.88C653.362 50.3067 654.429 50.02 655.762 50.02C656.735 50.02 657.682 50.1667 658.602 50.46V50.2C658.602 48.6667 657.729 47.9 655.982 47.9C655.022 47.9 654.015 48.12 652.962 48.56L652.302 46.66C653.649 46.0867 654.982 45.8 656.302 45.8C657.875 45.8 659.042 46.1933 659.802 46.98C660.562 47.74 660.942 48.8267 660.942 50.24V56.5H658.582V55.18C657.729 56.2067 656.582 56.72 655.142 56.72ZM655.822 54.96C656.635 54.96 657.309 54.7533 657.842 54.34C658.375 53.9133 658.642 53.3667 658.642 52.7V51.98C657.922 51.7 657.122 51.56 656.242 51.56C655.455 51.56 654.842 51.7133 654.402 52.02C653.975 52.3267 653.762 52.76 653.762 53.32V53.36C653.762 53.8533 653.955 54.2467 654.342 54.54C654.729 54.82 655.222 54.96 655.822 54.96ZM663.82 56.5V45.94H666.26V48.32C667.007 46.52 668.254 45.66 670 45.74V48.3H669.86C668.754 48.3 667.874 48.66 667.22 49.38C666.58 50.0867 666.26 51.12 666.26 52.48V56.5H663.82ZM672.082 56.5V45.94H674.522V47.56C675.402 46.3333 676.502 45.72 677.822 45.72C679.009 45.72 679.929 46.0867 680.582 46.82C681.249 47.54 681.582 48.52 681.582 49.76V56.5H679.162V50.5C679.162 49.6733 678.962 49.04 678.562 48.6C678.175 48.1467 677.622 47.92 676.902 47.92C676.182 47.92 675.602 48.1533 675.162 48.62C674.735 49.0867 674.522 49.7267 674.522 50.54V56.5H672.082Z" fill="#F3F3F3"/>
<path d="M690.407 47.5897C690.852 47.2629 691.478 47.3582 691.806 47.8026L691.808 47.8055C691.81 47.808 691.813 47.812 691.816 47.8172C691.824 47.8278 691.836 47.8441 691.852 47.8651C691.883 47.9074 691.931 47.9705 691.991 48.0506C692.112 48.2111 692.288 48.4413 692.504 48.7176C692.936 49.2717 693.526 50.0077 694.162 50.7401C694.802 51.4775 695.47 52.1894 696.058 52.7088C696.353 52.9695 696.605 53.1605 696.805 53.2811C696.9 53.3385 696.964 53.3679 697 53.3827C697.036 53.3679 697.1 53.3383 697.195 53.2811C697.395 53.1605 697.648 52.9693 697.942 52.7088C698.53 52.1894 699.198 51.4774 699.838 50.7401C700.474 50.0078 701.064 49.2716 701.496 48.7176C701.712 48.4414 701.888 48.211 702.009 48.0506C702.069 47.9706 702.117 47.9073 702.148 47.8651C702.164 47.8442 702.176 47.8277 702.184 47.8172C702.187 47.8122 702.191 47.8079 702.192 47.8055L702.194 47.8026C702.522 47.3582 703.148 47.2633 703.593 47.5907C704.037 47.918 704.132 48.5435 703.806 48.9881L703.804 48.9901L703.801 48.994C703.799 48.9971 703.795 49.0021 703.791 49.0077C703.782 49.0197 703.769 49.0378 703.752 49.0604C703.718 49.1058 703.669 49.1722 703.606 49.2557C703.479 49.4233 703.296 49.6623 703.073 49.9481C702.628 50.5188 702.014 51.2833 701.348 52.0506C700.686 52.8129 699.952 53.6014 699.267 54.2069C698.925 54.5085 698.572 54.7865 698.228 54.994C697.911 55.1848 697.476 55.3952 697 55.3953C696.524 55.3954 696.088 55.1849 695.772 54.994C695.427 54.7865 695.075 54.5085 694.733 54.2069C694.048 53.6014 693.314 52.8131 692.652 52.0506C691.986 51.2832 691.372 50.5189 690.927 49.9481C690.704 49.6622 690.521 49.4233 690.395 49.2557C690.331 49.1721 690.282 49.1059 690.248 49.0604C690.231 49.0377 690.218 49.0197 690.209 49.0077C690.205 49.0019 690.202 48.9972 690.199 48.994L690.196 48.9901L690.194 48.9881C689.867 48.5435 689.963 47.9171 690.407 47.5897Z" fill="#F3F3F3"/>
<path d="M747.7 56.7C745.46 56.7 743.513 55.9533 741.86 54.46L743.34 52.7C744.74 53.9133 746.213 54.52 747.76 54.52C748.52 54.52 749.12 54.36 749.56 54.04C750.013 53.7067 750.24 53.28 750.24 52.76V52.72C750.24 52.2 750.02 51.7867 749.58 51.48C749.153 51.16 748.32 50.86 747.08 50.58C745.467 50.2067 744.287 49.72 743.54 49.12C742.793 48.52 742.42 47.6133 742.42 46.4V46.36C742.42 45.16 742.867 44.1867 743.76 43.44C744.653 42.68 745.8 42.3 747.2 42.3C749.107 42.3 750.8 42.8867 752.28 44.06L750.96 45.92C749.653 44.96 748.387 44.48 747.16 44.48C746.453 44.48 745.893 44.64 745.48 44.96C745.08 45.2667 744.88 45.66 744.88 46.14V46.18C744.88 46.7267 745.1 47.1533 745.54 47.46C745.993 47.7533 746.887 48.06 748.22 48.38C749.78 48.78 750.913 49.2867 751.62 49.9C752.34 50.5 752.7 51.36 752.7 52.48V52.52C752.7 53.8133 752.24 54.8333 751.32 55.58C750.4 56.3267 749.193 56.7 747.7 56.7ZM758.755 56.68C756.729 56.68 755.715 55.6467 755.715 53.58V48.02H754.375V45.94H755.715V43.04H758.135V45.94H760.975V48.02H758.135V53.2C758.135 54.08 758.569 54.52 759.435 54.52C759.955 54.52 760.455 54.4 760.935 54.16V56.14C760.282 56.5 759.555 56.68 758.755 56.68ZM767.078 56.72C765.891 56.72 764.965 56.36 764.298 55.64C763.645 54.9067 763.318 53.9133 763.318 52.66V45.94H765.738V51.94C765.738 52.7667 765.931 53.4 766.318 53.84C766.718 54.28 767.278 54.5 767.998 54.5C768.718 54.5 769.291 54.2733 769.718 53.82C770.158 53.3533 770.378 52.7133 770.378 51.9V45.94H772.818V56.5H770.378V54.86C769.525 56.1 768.425 56.72 767.078 56.72ZM780.2 56.72C778.88 56.72 777.734 56.2267 776.76 55.24C775.787 54.2533 775.3 52.92 775.3 51.24V51.2C775.3 49.52 775.78 48.1867 776.74 47.2C777.714 46.2133 778.867 45.72 780.2 45.72C781.68 45.72 782.88 46.34 783.8 47.58V41.9H786.22V56.5H783.8V54.74C782.867 56.06 781.667 56.72 780.2 56.72ZM780.78 54.62C781.62 54.62 782.34 54.3067 782.94 53.68C783.54 53.04 783.84 52.2267 783.84 51.24V51.2C783.84 50.2133 783.54 49.4067 782.94 48.78C782.34 48.14 781.62 47.82 780.78 47.82C779.927 47.82 779.207 48.1333 778.62 48.76C778.034 49.3733 777.74 50.1867 777.74 51.2V51.24C777.74 52.24 778.034 53.0533 778.62 53.68C779.207 54.3067 779.927 54.62 780.78 54.62ZM794.098 56.74C792.552 56.74 791.258 56.2333 790.218 55.22C789.192 54.1933 788.678 52.8733 788.678 51.26V51.22C788.678 49.6733 789.165 48.3733 790.138 47.32C791.112 46.2533 792.345 45.72 793.838 45.72C795.438 45.72 796.678 46.2667 797.558 47.36C798.452 48.44 798.898 49.7867 798.898 51.4C798.898 51.5333 798.885 51.76 798.858 52.08H791.098C791.232 52.9333 791.572 53.5933 792.118 54.06C792.665 54.5267 793.338 54.76 794.138 54.76C795.165 54.76 796.118 54.34 796.998 53.5L798.418 54.76C797.298 56.08 795.858 56.74 794.098 56.74ZM791.078 50.48H796.498C796.418 49.6667 796.145 49 795.678 48.48C795.212 47.96 794.592 47.7 793.818 47.7C793.072 47.7 792.452 47.9533 791.958 48.46C791.478 48.9667 791.185 49.64 791.078 50.48ZM801.309 56.5V45.94H803.749V47.56C804.629 46.3333 805.729 45.72 807.049 45.72C808.235 45.72 809.155 46.0867 809.809 46.82C810.475 47.54 810.809 48.52 810.809 49.76V56.5H808.389V50.5C808.389 49.6733 808.189 49.04 807.789 48.6C807.402 48.1467 806.849 47.92 806.129 47.92C805.409 47.92 804.829 48.1533 804.389 48.62C803.962 49.0867 803.749 49.7267 803.749 50.54V56.5H801.309ZM817.271 56.68C815.244 56.68 814.231 55.6467 814.231 53.58V48.02H812.891V45.94H814.231V43.04H816.651V45.94H819.491V48.02H816.651V53.2C816.651 54.08 817.084 54.52 817.951 54.52C818.471 54.52 818.971 54.4 819.451 54.16V56.14C818.798 56.5 818.071 56.68 817.271 56.68ZM831.57 56.7C829.916 56.7 828.423 56.1733 827.09 55.12L828.17 53.48C829.356 54.3467 830.51 54.78 831.63 54.78C832.15 54.78 832.55 54.68 832.83 54.48C833.123 54.2667 833.27 53.9867 833.27 53.64V53.6C833.27 53.4133 833.223 53.2533 833.13 53.12C833.036 52.9867 832.85 52.8533 832.57 52.72C832.29 52.5867 832.083 52.5 831.95 52.46C831.83 52.4067 831.543 52.3133 831.09 52.18C831.01 52.1533 830.95 52.1333 830.91 52.12C830.443 52 830.043 51.8733 829.71 51.74C829.39 51.6067 829.05 51.4267 828.69 51.2C828.343 50.96 828.076 50.66 827.89 50.3C827.703 49.94 827.61 49.52 827.61 49.04V49C827.61 48.0133 827.963 47.2267 828.67 46.64C829.39 46.0533 830.29 45.76 831.37 45.76C832.743 45.76 834.036 46.16 835.25 46.96L834.29 48.68C833.196 48.0133 832.203 47.68 831.31 47.68C830.856 47.68 830.496 47.78 830.23 47.98C829.963 48.18 829.83 48.4267 829.83 48.72V48.76C829.83 49 829.956 49.22 830.21 49.42C830.463 49.6067 830.723 49.7533 830.99 49.86C831.27 49.9667 831.676 50.1 832.21 50.26C832.676 50.4067 833.07 50.5533 833.39 50.7C833.71 50.8333 834.043 51.02 834.39 51.26C834.75 51.5 835.023 51.7933 835.21 52.14C835.396 52.4867 835.49 52.8867 835.49 53.34V53.38C835.49 54.4467 835.123 55.2667 834.39 55.84C833.656 56.4133 832.716 56.7 831.57 56.7ZM841.609 56.72C840.423 56.72 839.496 56.36 838.829 55.64C838.176 54.9067 837.849 53.9133 837.849 52.66V45.94H840.269V51.94C840.269 52.7667 840.463 53.4 840.849 53.84C841.249 54.28 841.809 54.5 842.529 54.5C843.249 54.5 843.823 54.2733 844.249 53.82C844.689 53.3533 844.909 52.7133 844.909 51.9V45.94H847.349V56.5H844.909V54.86C844.056 56.1 842.956 56.72 841.609 56.72ZM850.352 59.7V45.94H852.792V47.7C853.725 46.38 854.925 45.72 856.392 45.72C857.712 45.72 858.858 46.2133 859.832 47.2C860.805 48.1867 861.292 49.52 861.292 51.2V51.24C861.292 52.92 860.805 54.2533 859.832 55.24C858.872 56.2267 857.725 56.72 856.392 56.72C854.925 56.72 853.725 56.1 852.792 54.86V59.7H850.352ZM853.632 53.68C854.232 54.3067 854.958 54.62 855.812 54.62C856.665 54.62 857.378 54.3133 857.952 53.7C858.538 53.0733 858.832 52.2533 858.832 51.24V51.2C858.832 50.2 858.538 49.3867 857.952 48.76C857.365 48.1333 856.652 47.82 855.812 47.82C854.958 47.82 854.232 48.14 853.632 48.78C853.032 49.4067 852.732 50.2133 852.732 51.2V51.24C852.732 52.2267 853.032 53.04 853.632 53.68ZM863.77 59.7V45.94H866.21V47.7C867.143 46.38 868.343 45.72 869.81 45.72C871.13 45.72 872.276 46.2133 873.25 47.2C874.223 48.1867 874.71 49.52 874.71 51.2V51.24C874.71 52.92 874.223 54.2533 873.25 55.24C872.29 56.2267 871.143 56.72 869.81 56.72C868.343 56.72 867.143 56.1 866.21 54.86V59.7H863.77ZM867.05 53.68C867.65 54.3067 868.376 54.62 869.23 54.62C870.083 54.62 870.796 54.3133 871.37 53.7C871.956 53.0733 872.25 52.2533 872.25 51.24V51.2C872.25 50.2 871.956 49.3867 871.37 48.76C870.783 48.1333 870.07 47.82 869.23 47.82C868.376 47.82 867.65 48.14 867.05 48.78C866.45 49.4067 866.15 50.2133 866.15 51.2V51.24C866.15 52.2267 866.45 53.04 867.05 53.68ZM882.228 56.74C880.628 56.74 879.294 56.2133 878.228 55.16C877.161 54.0933 876.628 52.8 876.628 51.28V51.24C876.628 49.7067 877.168 48.4067 878.248 47.34C879.328 46.26 880.668 45.72 882.268 45.72C883.881 45.72 885.221 46.2533 886.288 47.32C887.354 48.3733 887.888 49.6667 887.888 51.2V51.24C887.888 52.7467 887.348 54.04 886.268 55.12C885.188 56.2 883.841 56.74 882.228 56.74ZM882.268 54.62C883.228 54.62 884.001 54.3 884.588 53.66C885.174 53.0067 885.468 52.2133 885.468 51.28V51.24C885.468 50.2933 885.161 49.4933 884.548 48.84C883.934 48.1733 883.161 47.84 882.228 47.84C881.281 47.84 880.514 48.1667 879.928 48.82C879.341 49.46 879.048 50.2533 879.048 51.2V51.24C879.048 52.1733 879.354 52.9733 879.968 53.64C880.581 54.2933 881.348 54.62 882.268 54.62ZM890.332 56.5V45.94H892.772V48.32C893.519 46.52 894.765 45.66 896.512 45.74V48.3H896.372C895.265 48.3 894.385 48.66 893.732 49.38C893.092 50.0867 892.772 51.12 892.772 52.48V56.5H890.332ZM902.154 56.68C900.127 56.68 899.114 55.6467 899.114 53.58V48.02H897.774V45.94H899.114V43.04H901.534V45.94H904.374V48.02H901.534V53.2C901.534 54.08 901.967 54.52 902.834 54.52C903.354 54.52 903.854 54.4 904.334 54.16V56.14C903.68 56.5 902.954 56.68 902.154 56.68Z" fill="#F3F3F3"/>
<path d="M913.407 47.5897C913.852 47.2629 914.478 47.3582 914.806 47.8026L914.808 47.8055C914.81 47.808 914.813 47.812 914.816 47.8172C914.824 47.8278 914.836 47.8441 914.852 47.8651C914.883 47.9074 914.931 47.9705 914.991 48.0506C915.112 48.2111 915.288 48.4413 915.504 48.7176C915.936 49.2717 916.526 50.0077 917.162 50.7401C917.802 51.4775 918.47 52.1894 919.058 52.7088C919.353 52.9695 919.605 53.1605 919.805 53.2811C919.9 53.3385 919.964 53.3679 920 53.3827C920.036 53.3679 920.1 53.3383 920.195 53.2811C920.395 53.1605 920.648 52.9693 920.942 52.7088C921.53 52.1894 922.198 51.4774 922.838 50.7401C923.474 50.0078 924.064 49.2716 924.496 48.7176C924.712 48.4414 924.888 48.211 925.009 48.0506C925.069 47.9706 925.117 47.9073 925.148 47.8651C925.164 47.8442 925.176 47.8277 925.184 47.8172C925.187 47.8122 925.191 47.8079 925.192 47.8055L925.194 47.8026C925.522 47.3582 926.148 47.2633 926.593 47.5907C927.037 47.918 927.132 48.5435 926.806 48.9881L926.804 48.9901L926.801 48.994C926.799 48.9971 926.795 49.0021 926.791 49.0077C926.782 49.0197 926.769 49.0378 926.752 49.0604C926.718 49.1058 926.669 49.1722 926.606 49.2557C926.479 49.4233 926.296 49.6623 926.073 49.9481C925.628 50.5188 925.014 51.2833 924.348 52.0506C923.686 52.8129 922.952 53.6014 922.267 54.2069C921.925 54.5085 921.572 54.7865 921.228 54.994C920.911 55.1848 920.476 55.3952 920 55.3953C919.524 55.3954 919.088 55.1849 918.772 54.994C918.427 54.7865 918.075 54.5085 917.733 54.2069C917.048 53.6014 916.314 52.8131 915.652 52.0506C914.986 51.2832 914.372 50.5189 913.927 49.9481C913.704 49.6622 913.521 49.4233 913.395 49.2557C913.331 49.1721 913.282 49.1059 913.248 49.0604C913.231 49.0377 913.218 49.0197 913.209 49.0077C913.205 49.0019 913.202 48.9972 913.199 48.994L913.196 48.9901L913.194 48.9881C912.867 48.5435 912.963 47.9171 913.407 47.5897Z" fill="#F3F3F3"/>
<path d="M968.9 57.2C967.02 57.2 965.527 56.4467 964.42 54.94L966.04 53.26C966.893 54.3667 967.833 54.92 968.86 54.92C969.553 54.92 970.093 54.6933 970.48 54.24C970.88 53.7733 971.08 53.08 971.08 52.16V43H973.62V52.24C973.62 53.84 973.18 55.08 972.3 55.96C971.473 56.7867 970.34 57.2 968.9 57.2ZM981.731 57.24C980.131 57.24 978.798 56.7133 977.731 55.66C976.665 54.5933 976.131 53.3 976.131 51.78V51.74C976.131 50.2067 976.671 48.9067 977.751 47.84C978.831 46.76 980.171 46.22 981.771 46.22C983.385 46.22 984.725 46.7533 985.791 47.82C986.858 48.8733 987.391 50.1667 987.391 51.7V51.74C987.391 53.2467 986.851 54.54 985.771 55.62C984.691 56.7 983.345 57.24 981.731 57.24ZM981.771 55.12C982.731 55.12 983.505 54.8 984.091 54.16C984.678 53.5067 984.971 52.7133 984.971 51.78V51.74C984.971 50.7933 984.665 49.9933 984.051 49.34C983.438 48.6733 982.665 48.34 981.731 48.34C980.785 48.34 980.018 48.6667 979.431 49.32C978.845 49.96 978.551 50.7533 978.551 51.7V51.74C978.551 52.6733 978.858 53.4733 979.471 54.14C980.085 54.7933 980.851 55.12 981.771 55.12ZM995.876 57.22C994.409 57.22 993.209 56.6 992.276 55.36V57H989.836V42.4H992.276V48.2C993.209 46.88 994.409 46.22 995.876 46.22C997.196 46.22 998.343 46.7133 999.316 47.7C1000.29 48.6867 1000.78 50.02 1000.78 51.7V51.74C1000.78 53.42 1000.29 54.7533 999.316 55.74C998.356 56.7267 997.209 57.22 995.876 57.22ZM993.116 54.18C993.716 54.8067 994.443 55.12 995.296 55.12C996.149 55.12 996.863 54.8133 997.436 54.2C998.023 53.5733 998.316 52.7533 998.316 51.74V51.7C998.316 50.7 998.023 49.8867 997.436 49.26C996.849 48.6333 996.136 48.32 995.296 48.32C994.443 48.32 993.716 48.64 993.116 49.28C992.516 49.9067 992.216 50.7133 992.216 51.7V51.74C992.216 52.7267 992.516 53.54 993.116 54.18ZM1006.89 57.2C1005.24 57.2 1003.75 56.6733 1002.41 55.62L1003.49 53.98C1004.68 54.8467 1005.83 55.28 1006.95 55.28C1007.47 55.28 1007.87 55.18 1008.15 54.98C1008.45 54.7667 1008.59 54.4867 1008.59 54.14V54.1C1008.59 53.9133 1008.55 53.7533 1008.45 53.62C1008.36 53.4867 1008.17 53.3533 1007.89 53.22C1007.61 53.0867 1007.41 53 1007.27 52.96C1007.15 52.9067 1006.87 52.8133 1006.41 52.68C1006.33 52.6533 1006.27 52.6333 1006.23 52.62C1005.77 52.5 1005.37 52.3733 1005.03 52.24C1004.71 52.1067 1004.37 51.9267 1004.01 51.7C1003.67 51.46 1003.4 51.16 1003.21 50.8C1003.03 50.44 1002.93 50.02 1002.93 49.54V49.5C1002.93 48.5133 1003.29 47.7267 1003.99 47.14C1004.71 46.5533 1005.61 46.26 1006.69 46.26C1008.07 46.26 1009.36 46.66 1010.57 47.46L1009.61 49.18C1008.52 48.5133 1007.53 48.18 1006.63 48.18C1006.18 48.18 1005.82 48.28 1005.55 48.48C1005.29 48.68 1005.15 48.9267 1005.15 49.22V49.26C1005.15 49.5 1005.28 49.72 1005.53 49.92C1005.79 50.1067 1006.05 50.2533 1006.31 50.36C1006.59 50.4667 1007 50.6 1007.53 50.76C1008 50.9067 1008.39 51.0533 1008.71 51.2C1009.03 51.3333 1009.37 51.52 1009.71 51.76C1010.07 52 1010.35 52.2933 1010.53 52.64C1010.72 52.9867 1010.81 53.3867 1010.81 53.84V53.88C1010.81 54.9467 1010.45 55.7667 1009.71 56.34C1008.98 56.9133 1008.04 57.2 1006.89 57.2Z" fill="#F3F3F3"/>
<path d="M1045.8 57V43H1048.26V54.76H1055.62V57H1045.8ZM1062.73 57.24C1061.13 57.24 1059.79 56.7133 1058.73 55.66C1057.66 54.5933 1057.13 53.3 1057.13 51.78V51.74C1057.13 50.2067 1057.67 48.9067 1058.75 47.84C1059.83 46.76 1061.17 46.22 1062.77 46.22C1064.38 46.22 1065.72 46.7533 1066.79 47.82C1067.85 48.8733 1068.39 50.1667 1068.39 51.7V51.74C1068.39 53.2467 1067.85 54.54 1066.77 55.62C1065.69 56.7 1064.34 57.24 1062.73 57.24ZM1062.77 55.12C1063.73 55.12 1064.5 54.8 1065.09 54.16C1065.67 53.5067 1065.97 52.7133 1065.97 51.78V51.74C1065.97 50.7933 1065.66 49.9933 1065.05 49.34C1064.43 48.6733 1063.66 48.34 1062.73 48.34C1061.78 48.34 1061.01 48.6667 1060.43 49.32C1059.84 49.96 1059.55 50.7533 1059.55 51.7V51.74C1059.55 52.6733 1059.85 53.4733 1060.47 54.14C1061.08 54.7933 1061.85 55.12 1062.77 55.12ZM1075.73 57.24C1074.17 57.24 1072.87 56.7133 1071.83 55.66C1070.79 54.5933 1070.27 53.3 1070.27 51.78V51.74C1070.27 50.22 1070.79 48.92 1071.83 47.84C1072.89 46.76 1074.2 46.22 1075.77 46.22C1077.44 46.22 1078.85 46.8267 1079.99 48.04L1078.47 49.66C1077.63 48.78 1076.73 48.34 1075.75 48.34C1074.89 48.34 1074.16 48.6667 1073.57 49.32C1072.99 49.9733 1072.69 50.7667 1072.69 51.7V51.74C1072.69 52.6867 1072.99 53.4867 1073.57 54.14C1074.17 54.7933 1074.93 55.12 1075.85 55.12C1076.81 55.12 1077.73 54.6867 1078.59 53.82L1080.05 55.26C1079.48 55.9 1078.86 56.3933 1078.19 56.74C1077.53 57.0733 1076.71 57.24 1075.73 57.24ZM1085.32 57.22C1084.26 57.22 1083.37 56.9333 1082.64 56.36C1081.92 55.7867 1081.56 54.9867 1081.56 53.96V53.92C1081.56 52.8 1081.95 51.9533 1082.74 51.38C1083.54 50.8067 1084.6 50.52 1085.94 50.52C1086.91 50.52 1087.86 50.6667 1088.78 50.96V50.7C1088.78 49.1667 1087.9 48.4 1086.16 48.4C1085.2 48.4 1084.19 48.62 1083.14 49.06L1082.48 47.16C1083.82 46.5867 1085.16 46.3 1086.48 46.3C1088.05 46.3 1089.22 46.6933 1089.98 47.48C1090.74 48.24 1091.12 49.3267 1091.12 50.74V57H1088.76V55.68C1087.9 56.7067 1086.76 57.22 1085.32 57.22ZM1086 55.46C1086.81 55.46 1087.48 55.2533 1088.02 54.84C1088.55 54.4133 1088.82 53.8667 1088.82 53.2V52.48C1088.1 52.2 1087.3 52.06 1086.42 52.06C1085.63 52.06 1085.02 52.2133 1084.58 52.52C1084.15 52.8267 1083.94 53.26 1083.94 53.82V53.86C1083.94 54.3533 1084.13 54.7467 1084.52 55.04C1084.9 55.32 1085.4 55.46 1086 55.46ZM1097.46 57.18C1095.43 57.18 1094.42 56.1467 1094.42 54.08V48.52H1093.08V46.44H1094.42V43.54H1096.84V46.44H1099.68V48.52H1096.84V53.7C1096.84 54.58 1097.27 55.02 1098.14 55.02C1098.66 55.02 1099.16 54.9 1099.64 54.66V56.64C1098.99 57 1098.26 57.18 1097.46 57.18ZM1102.18 44.82V42.52H1104.78V44.82H1102.18ZM1102.26 57V46.44H1104.7V57H1102.26ZM1112.88 57.24C1111.28 57.24 1109.95 56.7133 1108.88 55.66C1107.82 54.5933 1107.28 53.3 1107.28 51.78V51.74C1107.28 50.2067 1107.82 48.9067 1108.9 47.84C1109.98 46.76 1111.32 46.22 1112.92 46.22C1114.54 46.22 1115.88 46.7533 1116.94 47.82C1118.01 48.8733 1118.54 50.1667 1118.54 51.7V51.74C1118.54 53.2467 1118 54.54 1116.92 55.62C1115.84 56.7 1114.5 57.24 1112.88 57.24ZM1112.92 55.12C1113.88 55.12 1114.66 54.8 1115.24 54.16C1115.83 53.5067 1116.12 52.7133 1116.12 51.78V51.74C1116.12 50.7933 1115.82 49.9933 1115.2 49.34C1114.59 48.6733 1113.82 48.34 1112.88 48.34C1111.94 48.34 1111.17 48.6667 1110.58 49.32C1110 49.96 1109.7 50.7533 1109.7 51.7V51.74C1109.7 52.6733 1110.01 53.4733 1110.62 54.14C1111.24 54.7933 1112 55.12 1112.92 55.12ZM1120.99 57V46.44H1123.43V48.06C1124.31 46.8333 1125.41 46.22 1126.73 46.22C1127.91 46.22 1128.83 46.5867 1129.49 47.32C1130.15 48.04 1130.49 49.02 1130.49 50.26V57H1128.07V51C1128.07 50.1733 1127.87 49.54 1127.47 49.1C1127.08 48.6467 1126.53 48.42 1125.81 48.42C1125.09 48.42 1124.51 48.6533 1124.07 49.12C1123.64 49.5867 1123.43 50.2267 1123.43 51.04V57H1120.99ZM1137.03 57.2C1135.38 57.2 1133.88 56.6733 1132.55 55.62L1133.63 53.98C1134.82 54.8467 1135.97 55.28 1137.09 55.28C1137.61 55.28 1138.01 55.18 1138.29 54.98C1138.58 54.7667 1138.73 54.4867 1138.73 54.14V54.1C1138.73 53.9133 1138.68 53.7533 1138.59 53.62C1138.5 53.4867 1138.31 53.3533 1138.03 53.22C1137.75 53.0867 1137.54 53 1137.41 52.96C1137.29 52.9067 1137 52.8133 1136.55 52.68C1136.47 52.6533 1136.41 52.6333 1136.37 52.62C1135.9 52.5 1135.5 52.3733 1135.17 52.24C1134.85 52.1067 1134.51 51.9267 1134.15 51.7C1133.8 51.46 1133.54 51.16 1133.35 50.8C1133.16 50.44 1133.07 50.02 1133.07 49.54V49.5C1133.07 48.5133 1133.42 47.7267 1134.13 47.14C1134.85 46.5533 1135.75 46.26 1136.83 46.26C1138.2 46.26 1139.5 46.66 1140.71 47.46L1139.75 49.18C1138.66 48.5133 1137.66 48.18 1136.77 48.18C1136.32 48.18 1135.96 48.28 1135.69 48.48C1135.42 48.68 1135.29 48.9267 1135.29 49.22V49.26C1135.29 49.5 1135.42 49.72 1135.67 49.92C1135.92 50.1067 1136.18 50.2533 1136.45 50.36C1136.73 50.4667 1137.14 50.6 1137.67 50.76C1138.14 50.9067 1138.53 51.0533 1138.85 51.2C1139.17 51.3333 1139.5 51.52 1139.85 51.76C1140.21 52 1140.48 52.2933 1140.67 52.64C1140.86 52.9867 1140.95 53.3867 1140.95 53.84V53.88C1140.95 54.9467 1140.58 55.7667 1139.85 56.34C1139.12 56.9133 1138.18 57.2 1137.03 57.2Z" fill="#F3F3F3"/>
<g filter="url(#filter0_d_1347_229)">
<g clip-path="url(#clip1_1347_229)">
<path fill-rule="evenodd" clip-rule="evenodd" d="M1184.42 40.0996C1185.47 40.0996 1186.26 40.9193 1186.45 41.8018C1186.57 42.355 1186.75 43.0155 1186.92 43.5791C1187.23 44.6126 1186.97 45.7551 1186.19 46.5371L1183.76 48.9688C1185.38 52.0721 1187.93 54.6172 1191.03 56.2432L1193.4 53.8701C1194.23 53.042 1195.44 52.8155 1196.5 53.1523C1197.02 53.3167 1197.61 53.484 1198.16 53.584C1199.06 53.7465 1199.9 54.5116 1199.9 55.5801V57.0879C1199.9 58.6657 1198.6 60.0717 1196.89 59.8838C1188.08 58.9113 1181.09 51.917 1180.12 43.1064C1179.93 41.4035 1181.33 40.0998 1182.91 40.0996H1184.42ZM1195.95 54.8682C1195.48 54.7167 1194.99 54.8335 1194.68 55.1426L1192.78 57.0391C1194.14 57.5676 1195.59 57.9287 1197.09 58.0947C1197.6 58.1504 1198.1 57.7314 1198.1 57.0879V55.5801C1198.1 55.5554 1198.09 55.5151 1198.05 55.4658C1198 55.4134 1197.92 55.3704 1197.84 55.3555C1197.19 55.2361 1196.51 55.044 1195.95 54.8682ZM1182.91 41.9004C1182.27 41.9006 1181.85 42.4045 1181.91 42.9092C1182.07 44.4129 1182.43 45.8583 1182.96 47.2197L1184.92 45.2646C1185.21 44.9694 1185.32 44.5201 1185.2 44.0938C1185.03 43.5161 1184.83 42.8046 1184.69 42.1846C1184.67 42.104 1184.63 42.0225 1184.56 41.9658C1184.5 41.9112 1184.45 41.9004 1184.42 41.9004H1182.91Z" fill="#64B97E"/>
<path d="M1191 45.0996C1193.15 45.0996 1194.9 46.8461 1194.9 49C1194.9 49.4971 1194.5 49.9004 1194 49.9004C1193.5 49.9002 1193.1 49.497 1193.1 49C1193.1 47.8402 1192.16 46.9004 1191 46.9004C1190.5 46.9002 1190.1 46.497 1190.1 46C1190.1 45.503 1190.5 45.0998 1191 45.0996Z" fill="#64B97E"/>
<path d="M1191 41.0996C1195.36 41.0996 1198.9 44.637 1198.9 49C1198.9 49.4971 1198.5 49.9004 1198 49.9004C1197.5 49.9002 1197.1 49.497 1197.1 49C1197.1 45.6311 1194.37 42.9004 1191 42.9004C1190.5 42.9002 1190.1 42.497 1190.1 42C1190.1 41.503 1190.5 41.0998 1191 41.0996Z" fill="#64B97E"/>
</g>
<path d="M1222 55.16C1220.86 56.5467 1219.4 57.24 1217.6 57.24C1215.8 57.24 1214.33 56.5533 1213.2 55.18C1212.08 53.7933 1211.52 52.08 1211.52 50.04V50C1211.52 47.96 1212.08 46.2467 1213.22 44.86C1214.36 43.46 1215.84 42.76 1217.64 42.76C1219.44 42.76 1220.9 43.4533 1222.02 44.84C1223.15 46.2133 1223.72 47.92 1223.72 49.96V50C1223.72 52.04 1223.14 53.76 1222 55.16ZM1217.64 55.02C1218.69 55.02 1219.54 54.54 1220.2 53.58C1220.85 52.62 1221.18 51.44 1221.18 50.04V50C1221.18 48.5867 1220.84 47.4 1220.18 46.44C1219.51 45.4667 1218.65 44.98 1217.6 44.98C1216.54 44.98 1215.69 45.46 1215.04 46.42C1214.38 47.3667 1214.06 48.5467 1214.06 49.96V50C1214.06 51.4133 1214.38 52.6067 1215.04 53.58C1215.7 54.54 1216.57 55.02 1217.64 55.02ZM1231.15 57.2C1229.6 57.2 1228.32 56.8333 1227.31 56.1C1226.31 55.3533 1225.81 54.38 1225.81 53.18V53.14C1225.81 51.5667 1226.65 50.4333 1228.33 49.74C1226.97 49.0333 1226.29 47.9933 1226.29 46.62V46.58C1226.29 45.5 1226.75 44.6 1227.67 43.88C1228.59 43.16 1229.75 42.8 1231.15 42.8C1232.55 42.8 1233.71 43.16 1234.63 43.88C1235.55 44.6 1236.01 45.5 1236.01 46.58V46.62C1236.01 47.9933 1235.33 49.0333 1233.97 49.74C1235.65 50.5 1236.49 51.62 1236.49 53.1V53.14C1236.49 54.38 1235.99 55.3667 1234.99 56.1C1233.99 56.8333 1232.71 57.2 1231.15 57.2ZM1229.35 48.34C1229.83 48.7267 1230.43 48.92 1231.15 48.92C1231.87 48.92 1232.46 48.7267 1232.93 48.34C1233.41 47.9533 1233.65 47.46 1233.65 46.86V46.82C1233.65 46.26 1233.42 45.7933 1232.95 45.42C1232.5 45.0467 1231.9 44.86 1231.15 44.86C1230.4 44.86 1229.8 45.0467 1229.33 45.42C1228.88 45.7933 1228.65 46.26 1228.65 46.82V46.86C1228.65 47.46 1228.88 47.9533 1229.35 48.34ZM1229.01 54.54C1229.54 54.94 1230.26 55.14 1231.15 55.14C1232.04 55.14 1232.75 54.9467 1233.27 54.56C1233.8 54.16 1234.07 53.6533 1234.07 53.04V53C1234.07 52.3733 1233.8 51.8667 1233.25 51.48C1232.7 51.0933 1232 50.9 1231.15 50.9C1230.3 50.9 1229.6 51.0933 1229.05 51.48C1228.5 51.8667 1228.23 52.3733 1228.23 53V53.04C1228.23 53.6267 1228.49 54.1267 1229.01 54.54ZM1249.07 55.16C1247.93 56.5467 1246.47 57.24 1244.67 57.24C1242.87 57.24 1241.4 56.5533 1240.27 55.18C1239.15 53.7933 1238.59 52.08 1238.59 50.04V50C1238.59 47.96 1239.15 46.2467 1240.29 44.86C1241.43 43.46 1242.91 42.76 1244.71 42.76C1246.51 42.76 1247.97 43.4533 1249.09 44.84C1250.22 46.2133 1250.79 47.92 1250.79 49.96V50C1250.79 52.04 1250.21 53.76 1249.07 55.16ZM1244.71 55.02C1245.76 55.02 1246.61 54.54 1247.27 53.58C1247.92 52.62 1248.25 51.44 1248.25 50.04V50C1248.25 48.5867 1247.91 47.4 1247.25 46.44C1246.58 45.4667 1245.72 44.98 1244.67 44.98C1243.61 44.98 1242.76 45.46 1242.11 46.42C1241.45 47.3667 1241.13 48.5467 1241.13 49.96V50C1241.13 51.4133 1241.45 52.6067 1242.11 53.58C1242.77 54.54 1243.64 55.02 1244.71 55.02ZM1263.54 55.16C1262.41 56.5467 1260.94 57.24 1259.14 57.24C1257.34 57.24 1255.87 56.5533 1254.74 55.18C1253.62 53.7933 1253.06 52.08 1253.06 50.04V50C1253.06 47.96 1253.63 46.2467 1254.76 44.86C1255.91 43.46 1257.38 42.76 1259.18 42.76C1260.98 42.76 1262.44 43.4533 1263.56 44.84C1264.69 46.2133 1265.26 47.92 1265.26 49.96V50C1265.26 52.04 1264.69 53.76 1263.54 55.16ZM1259.18 55.02C1260.23 55.02 1261.09 54.54 1261.74 53.58C1262.39 52.62 1262.72 51.44 1262.72 50.04V50C1262.72 48.5867 1262.39 47.4 1261.72 46.44C1261.05 45.4667 1260.19 44.98 1259.14 44.98C1258.09 44.98 1257.23 45.46 1256.58 46.42C1255.93 47.3667 1255.6 48.5467 1255.6 49.96V50C1255.6 51.4133 1255.93 52.6067 1256.58 53.58C1257.25 54.54 1258.11 55.02 1259.18 55.02ZM1278.47 57.24C1276.54 57.24 1274.82 56.5267 1273.33 55.1L1274.85 53.32C1276.05 54.44 1277.25 55 1278.45 55C1279.29 55 1279.96 54.78 1280.47 54.34C1280.98 53.9 1281.23 53.3133 1281.23 52.58V52.54C1281.23 51.8333 1280.96 51.2733 1280.43 50.86C1279.9 50.4333 1279.2 50.22 1278.33 50.22C1277.49 50.22 1276.63 50.4267 1275.75 50.84L1274.27 49.86L1274.67 43H1283.05V45.2H1276.79L1276.57 48.46C1277.3 48.1933 1278.04 48.06 1278.79 48.06C1280.22 48.06 1281.38 48.44 1282.29 49.2C1283.21 49.9467 1283.67 51.0333 1283.67 52.46V52.5C1283.67 53.9267 1283.19 55.0733 1282.23 55.94C1281.28 56.8067 1280.03 57.24 1278.47 57.24ZM1293.09 57V53.86H1286.03L1285.57 52.1L1293.35 42.9H1295.45V51.84H1297.45V53.86H1295.45V57H1293.09ZM1288.49 51.84H1293.09V46.3L1288.49 51.84ZM1305.22 57.24C1303.61 57.24 1302.31 56.7467 1301.32 55.76C1300.76 55.2 1300.34 54.5067 1300.04 53.68C1299.76 52.8533 1299.62 51.7667 1299.62 50.42V50.38C1299.62 48.1533 1300.14 46.3267 1301.18 44.9C1302.24 43.4733 1303.72 42.76 1305.62 42.76C1307.18 42.76 1308.61 43.28 1309.9 44.32L1308.58 46.24C1308.05 45.8133 1307.56 45.5 1307.1 45.3C1306.65 45.1 1306.13 45 1305.54 45C1304.77 45 1304.12 45.2467 1303.6 45.74C1303.08 46.2333 1302.72 46.8 1302.52 47.44C1302.32 48.0667 1302.21 48.74 1302.18 49.46C1303.09 48.5133 1304.21 48.04 1305.54 48.04C1306.96 48.04 1308.12 48.4333 1309.04 49.22C1309.96 50.0067 1310.42 51.08 1310.42 52.44V52.48C1310.42 53.8667 1309.92 55.0067 1308.92 55.9C1307.94 56.7933 1306.7 57.24 1305.22 57.24ZM1303.06 54.4C1303.6 54.8667 1304.3 55.1 1305.16 55.1C1306.03 55.1 1306.71 54.8667 1307.2 54.4C1307.71 53.92 1307.96 53.3133 1307.96 52.58V52.54C1307.96 51.82 1307.7 51.2333 1307.18 50.78C1306.66 50.3267 1305.97 50.1 1305.1 50.1C1304.25 50.1 1303.56 50.34 1303.04 50.82C1302.52 51.2867 1302.26 51.8667 1302.26 52.56V52.6C1302.26 53.3333 1302.53 53.9333 1303.06 54.4ZM1319.72 57L1326 45.16H1318.96V43H1328.8V44.86L1322.5 57H1319.72ZM1335.62 57.24C1333.41 57.24 1331.62 56.4267 1330.26 54.8L1331.98 53.18C1333.02 54.4067 1334.25 55.02 1335.66 55.02C1336.35 55.02 1336.93 54.8267 1337.38 54.44C1337.85 54.04 1338.08 53.5267 1338.08 52.9V52.86C1338.08 52.18 1337.79 51.6533 1337.22 51.28C1336.65 50.8933 1335.86 50.7 1334.86 50.7H1333.72L1333.32 49.16L1337.1 45.14H1331.04V43H1340.3V44.84L1336.4 48.84C1337.59 48.9867 1338.57 49.38 1339.34 50.02C1340.13 50.6467 1340.52 51.56 1340.52 52.76V52.8C1340.52 54.0933 1340.07 55.16 1339.16 56C1338.25 56.8267 1337.07 57.24 1335.62 57.24ZM1345.32 57V45.4L1342.8 46.1L1342.28 44.1L1346.06 42.9H1347.76V57H1345.32ZM1353.25 57V45.4L1350.73 46.1L1350.21 44.1L1353.99 42.9H1355.69V57H1353.25Z" fill="#64B97E"/>
</g>
<mask id="path-49-inside-1_1347_229" fill="white">
<path d="M1394 50C1394 33.4315 1407.43 20 1424 20H1541C1557.57 20 1571 33.4315 1571 50C1571 66.5685 1557.57 80 1541 80H1424C1407.43 80 1394 66.5685 1394 50Z"/>
</mask>
<path d="M1394 50C1394 33.4315 1407.43 20 1424 20H1541C1557.57 20 1571 33.4315 1571 50C1571 66.5685 1557.57 80 1541 80H1424C1407.43 80 1394 66.5685 1394 50Z" fill="#EDEFF3"/>
<path d="M1394 20H1571H1394M1571 50C1571 68.2254 1556.23 83 1538 83H1427C1408.77 83 1394 68.2254 1394 50C1394 64.9117 1407.43 77 1424 77H1541C1557.57 77 1571 64.9117 1571 50ZM1571 50M1394 80V20V80M1394 80M1571 20V80V20" fill="#B7B7B7" mask="url(#path-49-inside-1_1347_229)"/>
<path d="M1419.81 57V43H1430.19V45.2H1422.27V48.84H1429.29V51.06H1422.27V54.8H1430.29V57H1419.81ZM1432.91 57V46.44H1435.35V48.06C1436.23 46.8333 1437.33 46.22 1438.65 46.22C1439.83 46.22 1440.75 46.5867 1441.41 47.32C1442.07 48.04 1442.41 49.02 1442.41 50.26V57H1439.99V51C1439.99 50.1733 1439.79 49.54 1439.39 49.1C1439 48.6467 1438.45 48.42 1437.73 48.42C1437.01 48.42 1436.43 48.6533 1435.99 49.12C1435.56 49.5867 1435.35 50.2267 1435.35 51.04V57H1432.91ZM1453.29 60.2V55.24C1452.36 56.56 1451.16 57.22 1449.69 57.22C1448.37 57.22 1447.22 56.7267 1446.25 55.74C1445.28 54.7533 1444.79 53.42 1444.79 51.74V51.7C1444.79 50.02 1445.27 48.6867 1446.23 47.7C1447.2 46.7133 1448.36 46.22 1449.69 46.22C1451.17 46.22 1452.37 46.84 1453.29 48.08V46.44H1455.71V60.2H1453.29ZM1450.27 55.12C1451.11 55.12 1451.83 54.8067 1452.43 54.18C1453.03 53.54 1453.33 52.7267 1453.33 51.74V51.7C1453.33 50.7133 1453.03 49.9067 1452.43 49.28C1451.83 48.64 1451.11 48.32 1450.27 48.32C1449.42 48.32 1448.7 48.6333 1448.11 49.26C1447.52 49.8733 1447.23 50.6867 1447.23 51.7V51.74C1447.23 52.74 1447.52 53.5533 1448.11 54.18C1448.7 54.8067 1449.42 55.12 1450.27 55.12ZM1462.39 57.22C1461.2 57.22 1460.27 56.86 1459.61 56.14C1458.95 55.4067 1458.63 54.4133 1458.63 53.16V46.44H1461.05V52.44C1461.05 53.2667 1461.24 53.9 1461.63 54.34C1462.03 54.78 1462.59 55 1463.31 55C1464.03 55 1464.6 54.7733 1465.03 54.32C1465.47 53.8533 1465.69 53.2133 1465.69 52.4V46.44H1468.13V57H1465.69V55.36C1464.83 56.6 1463.73 57.22 1462.39 57.22ZM1471.19 44.82V42.52H1473.79V44.82H1471.19ZM1471.27 57V46.44H1473.71V57H1471.27ZM1476.85 57V46.44H1479.29V48.82C1480.04 47.02 1481.28 46.16 1483.03 46.24V48.8H1482.89C1481.78 48.8 1480.9 49.16 1480.25 49.88C1479.61 50.5867 1479.29 51.62 1479.29 52.98V57H1476.85ZM1489.62 57.24C1488.08 57.24 1486.78 56.7333 1485.74 55.72C1484.72 54.6933 1484.2 53.3733 1484.2 51.76V51.72C1484.2 50.1733 1484.69 48.8733 1485.66 47.82C1486.64 46.7533 1487.87 46.22 1489.36 46.22C1490.96 46.22 1492.2 46.7667 1493.08 47.86C1493.98 48.94 1494.42 50.2867 1494.42 51.9C1494.42 52.0333 1494.41 52.26 1494.38 52.58H1486.62C1486.76 53.4333 1487.1 54.0933 1487.64 54.56C1488.19 55.0267 1488.86 55.26 1489.66 55.26C1490.69 55.26 1491.64 54.84 1492.52 54L1493.94 55.26C1492.82 56.58 1491.38 57.24 1489.62 57.24ZM1486.6 50.98H1492.02C1491.94 50.1667 1491.67 49.5 1491.2 48.98C1490.74 48.46 1490.12 48.2 1489.34 48.2C1488.6 48.2 1487.98 48.4533 1487.48 48.96C1487 49.4667 1486.71 50.14 1486.6 50.98ZM1503.13 57V43H1505.41L1512.91 52.68V43H1515.33V57H1513.27L1505.55 47.04V57H1503.13ZM1523.67 57.24C1522.07 57.24 1520.74 56.7133 1519.67 55.66C1518.6 54.5933 1518.07 53.3 1518.07 51.78V51.74C1518.07 50.2067 1518.61 48.9067 1519.69 47.84C1520.77 46.76 1522.11 46.22 1523.71 46.22C1525.32 46.22 1526.66 46.7533 1527.73 47.82C1528.8 48.8733 1529.33 50.1667 1529.33 51.7V51.74C1529.33 53.2467 1528.79 54.54 1527.71 55.62C1526.63 56.7 1525.28 57.24 1523.67 57.24ZM1523.71 55.12C1524.67 55.12 1525.44 54.8 1526.03 54.16C1526.62 53.5067 1526.91 52.7133 1526.91 51.78V51.74C1526.91 50.7933 1526.6 49.9933 1525.99 49.34C1525.38 48.6733 1524.6 48.34 1523.67 48.34C1522.72 48.34 1521.96 48.6667 1521.37 49.32C1520.78 49.96 1520.49 50.7533 1520.49 51.7V51.74C1520.49 52.6733 1520.8 53.4733 1521.41 54.14C1522.02 54.7933 1522.79 55.12 1523.71 55.12ZM1533.83 57.08L1530.39 46.44H1532.89L1535.01 53.68L1537.35 46.4H1539.43L1541.77 53.68L1543.93 46.44H1546.37L1542.91 57.08H1540.73L1538.37 49.86L1535.99 57.08H1533.83Z" fill="#131415"/>
<rect x="1583" y="20" width="60" height="60" rx="30" fill="white" fill-opacity="0.12"/>
<path fill-rule="evenodd" clip-rule="evenodd" d="M1612 40.0996C1616.92 40.0996 1620.9 44.0847 1620.9 49C1620.9 51.1333 1620.15 53.0899 1618.9 54.623L1622.64 58.3633C1622.99 58.7148 1622.99 59.2852 1622.64 59.6367C1622.29 59.9882 1621.71 59.9882 1621.36 59.6367L1617.62 55.8965C1616.09 57.148 1614.13 57.9004 1612 57.9004C1607.08 57.9004 1603.1 53.9153 1603.1 49C1603.1 44.0847 1607.08 40.0996 1612 40.0996ZM1612 41.9004C1608.08 41.9004 1604.9 45.0788 1604.9 49C1604.9 52.9212 1608.08 56.0996 1612 56.0996C1615.92 56.0996 1619.1 52.9212 1619.1 49C1619.1 45.0788 1615.92 41.9004 1612 41.9004Z" fill="#F3F3F3"/>
<rect x="1655" y="20" width="105" height="60" rx="30" fill="white" fill-opacity="0.12"/>
<path d="M1680.86 57V43H1683.32V54.76H1690.68V57H1680.86ZM1697.79 57.24C1696.19 57.24 1694.86 56.7133 1693.79 55.66C1692.72 54.5933 1692.19 53.3 1692.19 51.78V51.74C1692.19 50.2067 1692.73 48.9067 1693.81 47.84C1694.89 46.76 1696.23 46.22 1697.83 46.22C1699.44 46.22 1700.78 46.7533 1701.85 47.82C1702.92 48.8733 1703.45 50.1667 1703.45 51.7V51.74C1703.45 53.2467 1702.91 54.54 1701.83 55.62C1700.75 56.7 1699.4 57.24 1697.79 57.24ZM1697.83 55.12C1698.79 55.12 1699.56 54.8 1700.15 54.16C1700.74 53.5067 1701.03 52.7133 1701.03 51.78V51.74C1701.03 50.7933 1700.72 49.9933 1700.11 49.34C1699.5 48.6733 1698.72 48.34 1697.79 48.34C1696.84 48.34 1696.08 48.6667 1695.49 49.32C1694.9 49.96 1694.61 50.7533 1694.61 51.7V51.74C1694.61 52.6733 1694.92 53.4733 1695.53 54.14C1696.14 54.7933 1696.91 55.12 1697.83 55.12ZM1710.61 60.24C1708.84 60.24 1707.27 59.82 1705.89 58.98L1706.79 57.16C1707.99 57.8933 1709.25 58.26 1710.55 58.26C1711.65 58.26 1712.47 57.9867 1713.03 57.44C1713.61 56.9067 1713.89 56.1067 1713.89 55.04V54.24C1712.89 55.52 1711.65 56.16 1710.17 56.16C1708.87 56.16 1707.74 55.7133 1706.79 54.82C1705.85 53.9133 1705.37 52.7133 1705.37 51.22V51.18C1705.37 49.6867 1705.85 48.4867 1706.79 47.58C1707.74 46.6733 1708.87 46.22 1710.17 46.22C1711.64 46.22 1712.87 46.82 1713.87 48.02V46.44H1716.29V54.84C1716.29 56.6 1715.85 57.9267 1714.95 58.82C1714.01 59.7667 1712.56 60.24 1710.61 60.24ZM1710.81 54.1C1711.67 54.1 1712.39 53.8267 1712.99 53.28C1713.61 52.7333 1713.91 52.04 1713.91 51.2V51.16C1713.91 50.32 1713.61 49.6333 1712.99 49.1C1712.39 48.5533 1711.67 48.28 1710.81 48.28C1709.96 48.28 1709.25 48.5467 1708.67 49.08C1708.1 49.6133 1707.81 50.3067 1707.81 51.16V51.2C1707.81 52.0533 1708.1 52.7533 1708.67 53.3C1709.26 53.8333 1709.97 54.1 1710.81 54.1ZM1719.37 44.82V42.52H1721.97V44.82H1719.37ZM1719.45 57V46.44H1721.89V57H1719.45ZM1725.04 57V46.44H1727.48V48.06C1728.36 46.8333 1729.46 46.22 1730.78 46.22C1731.96 46.22 1732.88 46.5867 1733.54 47.32C1734.2 48.04 1734.54 49.02 1734.54 50.26V57H1732.12V51C1732.12 50.1733 1731.92 49.54 1731.52 49.1C1731.13 48.6467 1730.58 48.42 1729.86 48.42C1729.14 48.42 1728.56 48.6533 1728.12 49.12C1727.69 49.5867 1727.48 50.2267 1727.48 51.04V57H1725.04Z" fill="#F3F3F3"/>
<defs>
<filter id="filter0_d_1347_229" x="1178" y="20" width="180" height="60.4" filterUnits="userSpaceOnUse" color-interpolation-filters="sRGB">
<feFlood flood-opacity="0" result="BackgroundImageFix"/>
<feColorMatrix in="SourceAlpha" type="matrix" values="0 0 0 0 0 0 0 0 0 0 0 0 0 0 0 0 0 0 127 0" result="hardAlpha"/>
<feOffset dy="0.4"/>
<feComposite in2="hardAlpha" operator="out"/>
<feColorMatrix type="matrix" values="0 0 0 0 0 0 0 0 0 0 0 0 0 0 0 0 0 0 0.05 0"/>
<feBlend mode="normal" in2="BackgroundImageFix" result="effect1_dropShadow_1347_229"/>
<feBlend mode="normal" in="SourceGraphic" in2="effect1_dropShadow_1347_229" result="shape"/>
</filter>
<clipPath id="clip0_1347_229">
<rect width="242.286" height="64" fill="white" transform="translate(0 18)"/>
</clipPath>
<clipPath id="clip1_1347_229">
<rect width="24" height="24" fill="white" transform="translate(1178 38)"/>
</clipPath>
</defs>
</svg>
