<svg width="385" height="130" viewBox="0 0 385 130" fill="none" xmlns="http://www.w3.org/2000/svg">
<path d="M145.641 69.9199H117.52V41.7988H145.641V69.9199ZM176.101 69.9199H147.979V41.7988H176.101V69.9199ZM206.561 69.9199H178.439V41.7988H206.561V69.9199ZM237.021 69.9199H208.9V41.7988H237.021V69.9199ZM267.48 69.9199H239.36V41.7988H267.48V69.9199ZM131.58 60.7539L137.645 65.1748L135.856 59.6689L131.58 60.7539ZM162.04 60.7539L168.104 65.1748L166.317 59.6689L162.04 60.7539ZM192.5 60.7539L198.564 65.1748L196.777 59.6689L192.5 60.7539ZM222.96 60.7539L229.024 65.1748L227.237 59.6689L222.96 60.7539ZM253.421 60.7539L259.485 65.1748L257.697 59.6689L253.421 60.7539ZM129.259 53.6338H121.73L127.825 58.0254L125.51 65.1152L131.604 60.7246L135.353 58.0312L141.417 53.6396V53.6338H133.89L131.574 46.5439L129.259 53.6338ZM159.725 53.6338H152.196L158.291 58.0254L155.976 65.1152L162.07 60.7246L165.819 58.0312L171.884 53.6396V53.6338H164.355L162.04 46.5439L159.725 53.6338ZM190.185 53.6338H182.657L188.751 58.0254L186.436 65.1152L192.53 60.7246L196.279 58.0312L202.344 53.6396V53.6338H194.815L192.5 46.5439L190.185 53.6338ZM220.645 53.6338H213.117L219.211 58.0254L216.896 65.1152L222.99 60.7246L226.739 58.0312L232.804 53.6396V53.6338H225.275L222.96 46.5439L220.645 53.6338ZM251.105 53.6338H243.577L249.672 58.0254L247.356 65.1152L253.45 60.7246L257.199 58.0312L263.264 53.6396V53.6338H255.736L253.421 46.5439L251.105 53.6338Z" fill="#64B97E"/>
<path d="M156.936 13.1865H172.106V16.0118H166.132V31.9317H162.857V16.0118H156.906L156.93 13.1865H156.936ZM171.458 18.3632H174.26V20.9845H174.308C174.41 20.6126 174.584 20.2587 174.836 19.9108C175.088 19.5629 175.387 19.233 175.759 18.963C176.107 18.6631 176.509 18.4352 176.959 18.2612C177.385 18.0873 177.835 17.9853 178.285 17.9853C178.735 17.9853 178.885 18.0093 179.011 18.0093C179.137 18.0333 179.286 18.0573 179.412 18.0573V20.9305C179.215 20.8825 178.987 20.8585 178.765 20.8286C178.543 20.8046 178.339 20.7806 178.117 20.7806C177.619 20.7806 177.145 20.8825 176.689 21.0805C176.233 21.2784 175.861 21.5784 175.513 21.9563C175.19 22.3582 174.914 22.832 174.716 23.4079C174.518 23.9837 174.416 24.6556 174.416 25.4054V31.8537H171.417L171.464 18.3572L171.458 18.3632ZM193.149 31.9317H190.198V30.0302H190.15C189.778 30.732 189.226 31.2539 188.5 31.6798C187.774 32.1056 187.024 32.3036 186.275 32.3036C184.499 32.3036 183.203 31.8777 182.4 30.9779C181.602 30.1022 181.2 28.7525 181.2 26.977V18.3572H184.199V26.677C184.199 27.8767 184.421 28.7285 184.901 29.2024C185.351 29.7003 185.999 29.9522 186.827 29.9522C187.654 29.9522 187.978 29.8502 188.398 29.6523C188.824 29.4543 189.172 29.2024 189.424 28.8785C189.7 28.5546 189.874 28.1527 190 27.7028C190.126 27.2529 190.174 26.755 190.174 26.2272V18.3572H193.173V31.9257H193.149V31.9317ZM198.248 27.5828C198.35 28.4586 198.673 29.0584 199.249 29.4303C199.825 29.7782 200.527 29.9582 201.325 29.9582C202.123 29.9582 201.925 29.9342 202.273 29.8862C202.62 29.8382 202.974 29.7602 203.274 29.6343C203.598 29.5083 203.85 29.3344 204.048 29.0824C204.246 28.8305 204.348 28.5306 204.324 28.1587C204.3 27.7868 204.174 27.4568 203.898 27.2109C203.622 26.965 203.298 26.785 202.896 26.6111C202.494 26.4611 202.021 26.3351 201.499 26.2392C200.971 26.1372 200.449 26.0172 199.897 25.8912C199.345 25.7653 198.799 25.6153 198.272 25.4414C197.744 25.2674 197.3 25.0395 196.874 24.7155C196.472 24.4156 196.124 24.0377 195.902 23.5638C195.65 23.09 195.53 22.5381 195.53 21.8423C195.53 21.1465 195.704 20.4926 196.082 19.9948C196.43 19.4969 196.904 19.095 197.456 18.7951C198.008 18.4952 198.631 18.2672 199.303 18.1472C199.975 18.0213 200.629 17.9733 201.229 17.9733C201.829 17.9733 202.602 18.0453 203.226 18.1952C203.85 18.3452 204.45 18.5671 204.948 18.921C205.476 19.245 205.896 19.6948 206.226 20.2227C206.573 20.7506 206.777 21.3984 206.873 22.1482H203.748C203.598 21.4224 203.274 20.9485 202.776 20.6966C202.249 20.4447 201.679 20.3247 201.001 20.3247C200.323 20.3247 200.527 20.3487 200.251 20.3727C199.951 20.4207 199.699 20.4746 199.429 20.5706C199.177 20.6726 198.955 20.8226 198.781 20.9965C198.607 21.1705 198.506 21.4224 198.506 21.7223C198.506 22.0222 198.631 22.3702 198.877 22.5981C199.129 22.82 199.453 23 199.879 23.1739C200.281 23.3239 200.755 23.4499 201.277 23.5459C201.799 23.6418 202.351 23.7678 202.902 23.8938C203.454 24.0197 203.976 24.1697 204.504 24.3436C205.032 24.5176 205.506 24.7455 205.902 25.0695C206.304 25.3694 206.651 25.7473 206.903 26.1912C207.155 26.6411 207.275 27.2169 207.275 27.8647C207.275 28.5126 207.101 29.3404 206.723 29.9162C206.351 30.4681 205.872 30.9419 205.296 31.2899C204.72 31.6378 204.048 31.8897 203.346 32.0637C202.62 32.2136 201.919 32.3156 201.223 32.3156C200.527 32.3156 199.573 32.2136 198.847 32.0157C198.122 31.8177 197.474 31.5178 196.946 31.1399C196.418 30.738 195.998 30.2641 195.698 29.6643C195.398 29.0884 195.224 28.3866 195.2 27.5648H198.224V27.5888H198.248V27.5828ZM208.121 18.3632H210.394V14.2662H213.394V18.3392H216.093V20.5646H213.394V27.8108C213.394 28.1347 213.418 28.3866 213.442 28.6325C213.466 28.8545 213.544 29.0584 213.616 29.2084C213.718 29.3584 213.868 29.4843 214.042 29.5563C214.239 29.6283 214.491 29.6823 214.839 29.6823C215.187 29.6823 215.265 29.6823 215.463 29.6583C215.661 29.6343 215.889 29.6103 216.087 29.5563V31.8777C215.763 31.9257 215.439 31.9497 215.115 31.9797C214.791 32.0277 214.491 32.0277 214.143 32.0277C213.346 32.0277 212.716 31.9557 212.242 31.8057C211.768 31.6558 211.39 31.4338 211.12 31.1579C210.844 30.858 210.67 30.5101 210.568 30.0842C210.466 29.6583 210.418 29.1364 210.394 28.5846V20.5886H208.121V18.3152V18.3632ZM218.192 18.3632H221.018V20.2107H221.066C221.492 19.4129 222.067 18.8611 222.817 18.5131C223.567 18.1652 224.365 17.9853 225.265 17.9853C226.164 17.9853 227.262 18.1592 228.066 18.5611C228.864 18.933 229.518 19.4369 230.039 20.1087C230.567 20.7566 230.963 21.5364 231.215 22.4061C231.467 23.2759 231.617 24.2297 231.617 25.2074C231.617 26.1852 231.491 27.007 231.269 27.8587C231.017 28.7105 230.669 29.4843 230.195 30.1322C229.721 30.78 229.122 31.3078 228.372 31.7037C227.622 32.1056 226.77 32.3036 225.774 32.3036C224.779 32.3036 224.899 32.2556 224.473 32.1776C224.047 32.1056 223.621 31.9797 223.225 31.8057C222.823 31.6318 222.451 31.4038 222.127 31.1279C221.78 30.852 221.504 30.528 221.276 30.1801H221.228V36.9524H218.228V18.3572H218.204L218.192 18.3632ZM228.666 25.1594C228.666 24.5596 228.594 23.9597 228.414 23.3839C228.264 22.808 228.012 22.3102 227.688 21.8603C227.364 21.4104 226.962 21.0625 226.512 20.7866C226.038 20.5106 225.487 20.3847 224.887 20.3847C223.639 20.3847 222.685 20.8106 222.037 21.6863C221.414 22.5621 221.09 23.7378 221.09 25.1834C221.09 26.6291 221.162 26.5091 221.342 27.0849C221.522 27.6608 221.744 28.1587 222.091 28.5846C222.415 29.0104 222.817 29.3344 223.291 29.5863C223.765 29.8382 224.293 29.9582 224.917 29.9582C225.541 29.9582 226.164 29.8082 226.638 29.5323C227.112 29.2564 227.49 28.8845 227.814 28.4586C228.114 28.0087 228.342 27.5108 228.462 26.935C228.588 26.3351 228.66 25.7593 228.66 25.1594H228.666ZM233.938 13.1865H236.938V16.0118H233.938V13.1865ZM233.938 18.3632H236.938V31.9317H233.938V18.3632ZM239.613 13.1865H242.612V31.9317H239.613V13.1865ZM251.76 32.3096C250.686 32.3096 249.708 32.1356 248.863 31.7577C248.011 31.3858 247.315 30.906 246.715 30.2821C246.139 29.6583 245.689 28.8845 245.389 28.0087C245.09 27.1329 244.916 26.1612 244.916 25.1354C244.916 24.1097 245.066 23.162 245.389 22.2862C245.689 21.4104 246.139 20.6606 246.715 20.0128C247.291 19.3889 248.017 18.8911 248.863 18.5371C249.714 18.1892 250.686 17.9853 251.76 17.9853C252.834 17.9853 253.811 18.1592 254.657 18.5371C255.509 18.8851 256.205 19.3889 256.804 20.0128C257.38 20.6366 257.83 21.4104 258.13 22.2862C258.43 23.162 258.604 24.1097 258.604 25.1354C258.604 26.1612 258.454 27.1329 258.13 28.0087C257.806 28.8845 257.38 29.6343 256.804 30.2821C256.229 30.906 255.503 31.4038 254.657 31.7577C253.805 32.1056 252.857 32.3096 251.76 32.3096ZM251.76 29.9342C252.408 29.9342 253.007 29.7842 253.487 29.5083C253.985 29.2324 254.363 28.8605 254.687 28.4106C255.011 27.9607 255.239 27.4388 255.389 26.887C255.539 26.3111 255.617 25.7353 255.617 25.1354C255.617 24.5356 255.545 23.9837 255.389 23.4139C255.239 22.838 255.017 22.3402 254.687 21.8903C254.357 21.4404 253.961 21.0925 253.487 20.8166C252.989 20.5406 252.414 20.3907 251.76 20.3907C251.106 20.3907 250.512 20.5406 250.032 20.8166C249.534 21.0925 249.156 21.4644 248.833 21.8903C248.509 22.3402 248.281 22.838 248.131 23.4139C247.981 23.9897 247.903 24.5656 247.903 25.1354C247.903 25.7053 247.975 26.3111 248.131 26.887C248.281 27.4628 248.503 27.9607 248.833 28.4106C249.156 28.8605 249.558 29.2324 250.032 29.5083C250.53 29.8082 251.106 29.9342 251.76 29.9342ZM259.51 18.3632H261.783V14.2662H264.782V18.3392H267.482V20.5646H264.782V27.8108C264.782 28.1347 264.806 28.3866 264.83 28.6325C264.854 28.8545 264.932 29.0584 265.004 29.2084C265.106 29.3584 265.256 29.4843 265.43 29.5563C265.628 29.6283 265.88 29.6823 266.228 29.6823C266.576 29.6823 266.654 29.6823 266.852 29.6583C267.05 29.6343 267.278 29.6103 267.476 29.5563V31.8777C267.152 31.9257 266.828 31.9497 266.498 31.9797C266.174 32.0277 265.874 32.0277 265.52 32.0277C264.722 32.0277 264.093 31.9557 263.619 31.8057C263.145 31.6558 262.767 31.4338 262.497 31.1579C262.221 30.858 262.047 30.5101 261.945 30.0842C261.843 29.6583 261.795 29.1364 261.771 28.5846V20.5886H259.498V18.3152V18.3632H259.51Z" fill="#EDEFF3"/>
<path d="M153.438 13.1863H139.714L135.491 0.139648L131.244 13.1863L117.52 13.1623L128.617 21.2362L124.37 34.2828L135.467 26.2089L146.564 34.2828L142.341 21.2362L153.438 13.1863Z" fill="#64B97E"/>
<path d="M143.29 24.1817L142.342 21.2305L135.492 26.2032L143.29 24.1757V24.1817Z" fill="black"/>
<path d="M11.8161 100.198C10.2201 100.198 8.94814 99.724 8.00014 98.776C7.05214 97.816 6.57814 96.466 6.57814 94.726V87.4H8.00014V94.636C8.00014 95.992 8.33614 97.042 9.00814 97.786C9.68014 98.518 10.6281 98.884 11.8521 98.884C13.0401 98.884 13.9701 98.53 14.6421 97.822C15.3141 97.114 15.6501 96.082 15.6501 94.726V87.4H17.0721V94.618C17.0721 96.418 16.5981 97.798 15.6501 98.758C14.7141 99.718 13.4361 100.198 11.8161 100.198ZM20.4343 100V87.4H21.8563V94.924L29.0923 87.4H30.9463L25.5283 92.908L31.1623 100H29.3803L24.5383 93.898L21.8563 96.616V100H20.4343ZM32.7238 91.486L32.5078 90.856C33.3838 90.532 33.7858 90.01 33.7138 89.29H33.0658V87.4H34.7218V89.02C34.7218 89.74 34.5598 90.292 34.2358 90.676C33.9238 91.06 33.4198 91.33 32.7238 91.486ZM40.1533 100.18C38.7253 100.18 37.4413 99.724 36.3013 98.812L37.0033 97.822C38.0353 98.614 39.1093 99.01 40.2253 99.01C40.8013 99.01 41.2633 98.878 41.6113 98.614C41.9713 98.35 42.1513 97.99 42.1513 97.534V97.498C42.1513 97.078 41.9533 96.754 41.5573 96.526C41.1613 96.298 40.5853 96.076 39.8293 95.86C39.4933 95.764 39.2473 95.692 39.0913 95.644C38.9353 95.584 38.7073 95.494 38.4073 95.374C38.1073 95.254 37.8793 95.14 37.7233 95.032C37.5793 94.912 37.4173 94.768 37.2373 94.6C37.0693 94.42 36.9433 94.216 36.8593 93.988C36.7873 93.76 36.7513 93.508 36.7513 93.232V93.196C36.7513 92.404 37.0453 91.762 37.6333 91.27C38.2333 90.778 38.9953 90.532 39.9193 90.532C41.1193 90.532 42.2353 90.874 43.2673 91.558L42.6373 92.602C41.7133 92.002 40.7953 91.702 39.8833 91.702C39.3433 91.702 38.9053 91.828 38.5693 92.08C38.2453 92.332 38.0833 92.656 38.0833 93.052V93.088C38.0833 93.256 38.1313 93.412 38.2273 93.556C38.3233 93.7 38.4313 93.82 38.5513 93.916C38.6713 94.012 38.8573 94.114 39.1093 94.222C39.3733 94.33 39.5833 94.408 39.7393 94.456C39.8953 94.504 40.1413 94.582 40.4773 94.69C40.8253 94.798 41.1133 94.894 41.3413 94.978C41.5813 95.062 41.8453 95.182 42.1333 95.338C42.4333 95.482 42.6673 95.644 42.8353 95.824C43.0153 95.992 43.1653 96.208 43.2853 96.472C43.4053 96.736 43.4653 97.03 43.4653 97.354V97.39C43.4653 98.254 43.1533 98.938 42.5293 99.442C41.9053 99.934 41.1133 100.18 40.1533 100.18ZM54.5507 100.162C53.7467 100.162 53.1047 99.952 52.6247 99.532C52.1567 99.1 51.9227 98.434 51.9227 97.534V91.918H50.6267V90.694H51.9227V87.886H53.3087V90.694H56.2607V91.918H53.3087V97.354C53.3087 98.386 53.8307 98.902 54.8747 98.902C55.3307 98.902 55.7807 98.794 56.2247 98.578V99.766C55.7447 100.03 55.1867 100.162 54.5507 100.162ZM62.6983 100.216C61.3183 100.216 60.1663 99.748 59.2423 98.812C58.3303 97.864 57.8743 96.724 57.8743 95.392V95.356C57.8743 94.012 58.3363 92.866 59.2603 91.918C60.1843 90.97 61.3423 90.496 62.7343 90.496C64.1143 90.496 65.2663 90.97 66.1903 91.918C67.1143 92.854 67.5763 93.988 67.5763 95.32V95.356C67.5763 96.7 67.1083 97.846 66.1723 98.794C65.2483 99.742 64.0903 100.216 62.6983 100.216ZM62.7343 98.974C63.7183 98.974 64.5343 98.626 65.1823 97.93C65.8303 97.234 66.1543 96.388 66.1543 95.392V95.356C66.1543 94.348 65.8183 93.49 65.1463 92.782C64.4863 92.074 63.6703 91.72 62.6983 91.72C61.7143 91.72 60.8983 92.074 60.2503 92.782C59.6143 93.478 59.2963 94.324 59.2963 95.32V95.356C59.2963 96.364 59.6263 97.222 60.2863 97.93C60.9463 98.626 61.7623 98.974 62.7343 98.974ZM70.0871 102.88V90.694H71.4731V92.566C72.4451 91.186 73.6331 90.496 75.0371 90.496C76.2251 90.496 77.2631 90.934 78.1511 91.81C79.0391 92.686 79.4831 93.856 79.4831 95.32V95.356C79.4831 96.808 79.0391 97.978 78.1511 98.866C77.2631 99.754 76.2251 100.198 75.0371 100.198C73.5611 100.198 72.3731 99.538 71.4731 98.218V102.88H70.0871ZM74.7851 98.956C75.7211 98.956 76.5011 98.632 77.1251 97.984C77.7491 97.336 78.0611 96.466 78.0611 95.374V95.338C78.0611 94.258 77.7431 93.388 77.1071 92.728C76.4831 92.068 75.7091 91.738 74.7851 91.738C73.8971 91.738 73.1111 92.08 72.4271 92.764C71.7551 93.448 71.4191 94.3 71.4191 95.32V95.356C71.4191 96.4 71.7551 97.264 72.4271 97.948C73.0991 98.62 73.8851 98.956 74.7851 98.956ZM81.6622 95.32V93.862H86.6662V95.32H81.6622ZM89.3878 100V90.694H90.7738V93.124C91.1338 92.32 91.6438 91.684 92.3038 91.216C92.9638 90.736 93.7198 90.508 94.5718 90.532V92.026H94.4638C93.3958 92.026 92.5138 92.398 91.8178 93.142C91.1218 93.886 90.7738 94.936 90.7738 96.292V100H89.3878ZM98.9977 100.198C98.0617 100.198 97.2457 99.946 96.5497 99.442C95.8657 98.926 95.5237 98.212 95.5237 97.3V97.264C95.5237 96.316 95.8837 95.578 96.6037 95.05C97.3357 94.522 98.3017 94.258 99.5017 94.258C100.45 94.258 101.404 94.39 102.364 94.654V94.33C102.364 93.502 102.124 92.872 101.644 92.44C101.164 92.008 100.48 91.792 99.5917 91.792C98.6557 91.792 97.7137 92.02 96.7657 92.476L96.3517 91.342C97.4437 90.826 98.5717 90.568 99.7357 90.568C101.056 90.568 102.058 90.91 102.742 91.594C103.378 92.23 103.696 93.136 103.696 94.312V100H102.364V98.596C101.548 99.664 100.426 100.198 98.9977 100.198ZM99.2677 99.1C100.144 99.1 100.882 98.866 101.482 98.398C102.082 97.918 102.382 97.312 102.382 96.58V95.68C101.446 95.416 100.534 95.284 99.6457 95.284C98.7817 95.284 98.1097 95.458 97.6297 95.806C97.1617 96.154 96.9277 96.622 96.9277 97.21V97.246C96.9277 97.81 97.1557 98.26 97.6117 98.596C98.0677 98.932 98.6197 99.1 99.2677 99.1ZM109.676 100.162C108.872 100.162 108.23 99.952 107.75 99.532C107.282 99.1 107.048 98.434 107.048 97.534V91.918H105.752V90.694H107.048V87.886H108.434V90.694H111.386V91.918H108.434V97.354C108.434 98.386 108.956 98.902 110 98.902C110.456 98.902 110.906 98.794 111.35 98.578V99.766C110.87 100.03 110.312 100.162 109.676 100.162ZM117.643 100.216C116.347 100.216 115.249 99.766 114.349 98.866C113.449 97.954 112.999 96.79 112.999 95.374V95.338C112.999 93.982 113.419 92.836 114.259 91.9C115.111 90.964 116.179 90.496 117.463 90.496C118.795 90.496 119.851 90.964 120.631 91.9C121.411 92.836 121.801 94.006 121.801 95.41C121.801 95.602 121.795 95.752 121.783 95.86H114.403C114.499 96.844 114.853 97.618 115.465 98.182C116.089 98.734 116.827 99.01 117.679 99.01C118.783 99.01 119.761 98.572 120.613 97.696L121.477 98.47C120.457 99.634 119.179 100.216 117.643 100.216ZM114.403 94.834H120.397C120.325 93.934 120.031 93.184 119.515 92.584C119.011 91.972 118.315 91.666 117.427 91.666C116.623 91.666 115.939 91.966 115.375 92.566C114.823 93.166 114.499 93.922 114.403 94.834ZM128.134 100.198C126.946 100.198 125.908 99.76 125.02 98.884C124.132 98.008 123.688 96.838 123.688 95.374V95.338C123.688 93.886 124.132 92.716 125.02 91.828C125.908 90.94 126.946 90.496 128.134 90.496C129.61 90.496 130.798 91.156 131.698 92.476V86.86H133.084V100H131.698V98.128C130.738 99.508 129.55 100.198 128.134 100.198ZM128.386 98.956C129.286 98.956 130.072 98.62 130.744 97.948C131.416 97.264 131.752 96.4 131.752 95.356V95.32C131.752 94.288 131.416 93.436 130.744 92.764C130.072 92.08 129.286 91.738 128.386 91.738C127.45 91.738 126.67 92.062 126.046 92.71C125.422 93.358 125.11 94.228 125.11 95.32V95.356C125.11 96.436 125.422 97.306 126.046 97.966C126.682 98.626 127.462 98.956 128.386 98.956ZM145.771 100.216C144.415 100.216 143.281 99.742 142.369 98.794C141.457 97.846 141.001 96.712 141.001 95.392V95.356C141.001 94.012 141.457 92.866 142.369 91.918C143.281 90.97 144.415 90.496 145.771 90.496C147.211 90.496 148.453 91.048 149.497 92.152L148.579 93.124C147.691 92.188 146.749 91.72 145.753 91.72C144.805 91.72 144.013 92.068 143.377 92.764C142.741 93.46 142.423 94.312 142.423 95.32V95.356C142.423 96.364 142.747 97.222 143.395 97.93C144.055 98.626 144.871 98.974 145.843 98.974C146.875 98.974 147.823 98.512 148.687 97.588L149.569 98.416C148.513 99.616 147.247 100.216 145.771 100.216ZM155.845 100.216C154.465 100.216 153.313 99.748 152.389 98.812C151.477 97.864 151.021 96.724 151.021 95.392V95.356C151.021 94.012 151.483 92.866 152.407 91.918C153.331 90.97 154.489 90.496 155.881 90.496C157.261 90.496 158.413 90.97 159.337 91.918C160.261 92.854 160.723 93.988 160.723 95.32V95.356C160.723 96.7 160.255 97.846 159.319 98.794C158.395 99.742 157.237 100.216 155.845 100.216ZM155.881 98.974C156.865 98.974 157.681 98.626 158.329 97.93C158.977 97.234 159.301 96.388 159.301 95.392V95.356C159.301 94.348 158.965 93.49 158.293 92.782C157.633 92.074 156.817 91.72 155.845 91.72C154.861 91.72 154.045 92.074 153.397 92.782C152.761 93.478 152.443 94.324 152.443 95.32V95.356C152.443 96.364 152.773 97.222 153.433 97.93C154.093 98.626 154.909 98.974 155.881 98.974ZM166.654 100.198C165.55 100.198 164.68 99.856 164.044 99.172C163.408 98.488 163.09 97.588 163.09 96.472V90.694H164.476V96.13C164.476 97.006 164.698 97.696 165.142 98.2C165.598 98.692 166.234 98.938 167.05 98.938C167.854 98.938 168.52 98.668 169.048 98.128C169.576 97.588 169.84 96.886 169.84 96.022V90.694H171.208V100H169.84V98.38C169.084 99.592 168.022 100.198 166.654 100.198ZM174.325 100V90.694H175.711V93.124C176.071 92.32 176.581 91.684 177.241 91.216C177.901 90.736 178.657 90.508 179.509 90.532V92.026H179.401C178.333 92.026 177.451 92.398 176.755 93.142C176.059 93.886 175.711 94.936 175.711 96.292V100H174.325ZM184.698 100.18C183.27 100.18 181.986 99.724 180.846 98.812L181.548 97.822C182.58 98.614 183.654 99.01 184.77 99.01C185.346 99.01 185.808 98.878 186.156 98.614C186.516 98.35 186.696 97.99 186.696 97.534V97.498C186.696 97.078 186.498 96.754 186.102 96.526C185.706 96.298 185.13 96.076 184.374 95.86C184.038 95.764 183.792 95.692 183.636 95.644C183.48 95.584 183.252 95.494 182.952 95.374C182.652 95.254 182.424 95.14 182.268 95.032C182.124 94.912 181.962 94.768 181.782 94.6C181.614 94.42 181.488 94.216 181.404 93.988C181.332 93.76 181.296 93.508 181.296 93.232V93.196C181.296 92.404 181.59 91.762 182.178 91.27C182.778 90.778 183.54 90.532 184.464 90.532C185.664 90.532 186.78 90.874 187.812 91.558L187.182 92.602C186.258 92.002 185.34 91.702 184.428 91.702C183.888 91.702 183.45 91.828 183.114 92.08C182.79 92.332 182.628 92.656 182.628 93.052V93.088C182.628 93.256 182.676 93.412 182.772 93.556C182.868 93.7 182.976 93.82 183.096 93.916C183.216 94.012 183.402 94.114 183.654 94.222C183.918 94.33 184.128 94.408 184.284 94.456C184.44 94.504 184.686 94.582 185.022 94.69C185.37 94.798 185.658 94.894 185.886 94.978C186.126 95.062 186.39 95.182 186.678 95.338C186.978 95.482 187.212 95.644 187.38 95.824C187.56 95.992 187.71 96.208 187.83 96.472C187.95 96.736 188.01 97.03 188.01 97.354V97.39C188.01 98.254 187.698 98.938 187.074 99.442C186.45 99.934 185.658 100.18 184.698 100.18ZM194.653 100.216C193.357 100.216 192.259 99.766 191.359 98.866C190.459 97.954 190.009 96.79 190.009 95.374V95.338C190.009 93.982 190.429 92.836 191.269 91.9C192.121 90.964 193.189 90.496 194.473 90.496C195.805 90.496 196.861 90.964 197.641 91.9C198.421 92.836 198.811 94.006 198.811 95.41C198.811 95.602 198.805 95.752 198.793 95.86H191.413C191.509 96.844 191.863 97.618 192.475 98.182C193.099 98.734 193.837 99.01 194.689 99.01C195.793 99.01 196.771 98.572 197.623 97.696L198.487 98.47C197.467 99.634 196.189 100.216 194.653 100.216ZM191.413 94.834H197.407C197.335 93.934 197.041 93.184 196.525 92.584C196.021 91.972 195.325 91.666 194.437 91.666C193.633 91.666 192.949 91.966 192.385 92.566C191.833 93.166 191.509 93.922 191.413 94.834ZM206.634 102.88V90.694H208.02V92.566C208.992 91.186 210.18 90.496 211.584 90.496C212.772 90.496 213.81 90.934 214.698 91.81C215.586 92.686 216.03 93.856 216.03 95.32V95.356C216.03 96.808 215.586 97.978 214.698 98.866C213.81 99.754 212.772 100.198 211.584 100.198C210.108 100.198 208.92 99.538 208.02 98.218V102.88H206.634ZM211.332 98.956C212.268 98.956 213.048 98.632 213.672 97.984C214.296 97.336 214.608 96.466 214.608 95.374V95.338C214.608 94.258 214.29 93.388 213.654 92.728C213.03 92.068 212.256 91.738 211.332 91.738C210.444 91.738 209.658 92.08 208.974 92.764C208.302 93.448 207.966 94.3 207.966 95.32V95.356C207.966 96.4 208.302 97.264 208.974 97.948C209.646 98.62 210.432 98.956 211.332 98.956ZM218.587 100V90.694H219.973V93.124C220.333 92.32 220.843 91.684 221.503 91.216C222.163 90.736 222.919 90.508 223.771 90.532V92.026H223.663C222.595 92.026 221.713 92.398 221.017 93.142C220.321 93.886 219.973 94.936 219.973 96.292V100H218.587ZM229.726 100.216C228.346 100.216 227.194 99.748 226.27 98.812C225.358 97.864 224.902 96.724 224.902 95.392V95.356C224.902 94.012 225.364 92.866 226.288 91.918C227.212 90.97 228.37 90.496 229.762 90.496C231.142 90.496 232.294 90.97 233.218 91.918C234.142 92.854 234.604 93.988 234.604 95.32V95.356C234.604 96.7 234.136 97.846 233.2 98.794C232.276 99.742 231.118 100.216 229.726 100.216ZM229.762 98.974C230.746 98.974 231.562 98.626 232.21 97.93C232.858 97.234 233.182 96.388 233.182 95.392V95.356C233.182 94.348 232.846 93.49 232.174 92.782C231.514 92.074 230.698 91.72 229.726 91.72C228.742 91.72 227.926 92.074 227.278 92.782C226.642 93.478 226.324 94.324 226.324 95.32V95.356C226.324 96.364 226.654 97.222 227.314 97.93C227.974 98.626 228.79 98.974 229.762 98.974ZM239.683 100.072L235.651 90.694H237.181L240.313 98.416L243.463 90.694H244.957L240.907 100.072H239.683ZM247.17 88.66V87.13H248.754V88.66H247.17ZM247.26 100V90.694H248.646V100H247.26ZM255.768 100.198C254.58 100.198 253.542 99.76 252.654 98.884C251.766 98.008 251.322 96.838 251.322 95.374V95.338C251.322 93.886 251.766 92.716 252.654 91.828C253.542 90.94 254.58 90.496 255.768 90.496C257.244 90.496 258.432 91.156 259.332 92.476V86.86H260.718V100H259.332V98.128C258.372 99.508 257.184 100.198 255.768 100.198ZM256.02 98.956C256.92 98.956 257.706 98.62 258.378 97.948C259.05 97.264 259.386 96.4 259.386 95.356V95.32C259.386 94.288 259.05 93.436 258.378 92.764C257.706 92.08 256.92 91.738 256.02 91.738C255.084 91.738 254.304 92.062 253.68 92.71C253.056 93.358 252.744 94.228 252.744 95.32V95.356C252.744 96.436 253.056 97.306 253.68 97.966C254.316 98.626 255.096 98.956 256.02 98.956ZM267.884 100.216C266.588 100.216 265.49 99.766 264.59 98.866C263.69 97.954 263.24 96.79 263.24 95.374V95.338C263.24 93.982 263.66 92.836 264.5 91.9C265.352 90.964 266.42 90.496 267.704 90.496C269.036 90.496 270.092 90.964 270.872 91.9C271.652 92.836 272.042 94.006 272.042 95.41C272.042 95.602 272.036 95.752 272.024 95.86H264.644C264.74 96.844 265.094 97.618 265.706 98.182C266.33 98.734 267.068 99.01 267.92 99.01C269.024 99.01 270.002 98.572 270.854 97.696L271.718 98.47C270.698 99.634 269.42 100.216 267.884 100.216ZM264.644 94.834H270.638C270.566 93.934 270.272 93.184 269.756 92.584C269.252 91.972 268.556 91.666 267.668 91.666C266.864 91.666 266.18 91.966 265.616 92.566C265.064 93.166 264.74 93.922 264.644 94.834ZM274.468 100V90.694H275.854V93.124C276.214 92.32 276.724 91.684 277.384 91.216C278.044 90.736 278.8 90.508 279.652 90.532V92.026H279.544C278.476 92.026 277.594 92.398 276.898 93.142C276.202 93.886 275.854 94.936 275.854 96.292V100H274.468ZM279.642 102.196L279.426 101.566C280.302 101.242 280.704 100.72 280.632 100H279.984V98.11H281.64V99.73C281.64 100.45 281.478 101.002 281.154 101.386C280.842 101.77 280.338 102.04 279.642 102.196ZM293.068 100.162C292.264 100.162 291.622 99.952 291.142 99.532C290.674 99.1 290.44 98.434 290.44 97.534V91.918H289.144V90.694H290.44V87.886H291.826V90.694H294.778V91.918H291.826V97.354C291.826 98.386 292.348 98.902 293.392 98.902C293.848 98.902 294.298 98.794 294.742 98.578V99.766C294.262 100.03 293.704 100.162 293.068 100.162ZM297.232 100V90.694H298.618V93.124C298.978 92.32 299.488 91.684 300.148 91.216C300.808 90.736 301.564 90.508 302.416 90.532V92.026H302.308C301.24 92.026 300.358 92.398 299.662 93.142C298.966 93.886 298.618 94.936 298.618 96.292V100H297.232ZM307.947 100.198C306.843 100.198 305.973 99.856 305.337 99.172C304.701 98.488 304.383 97.588 304.383 96.472V90.694H305.769V96.13C305.769 97.006 305.991 97.696 306.435 98.2C306.891 98.692 307.527 98.938 308.343 98.938C309.147 98.938 309.813 98.668 310.341 98.128C310.869 97.588 311.133 96.886 311.133 96.022V90.694H312.501V100H311.133V98.38C310.377 99.592 309.315 100.198 307.947 100.198ZM318.696 100.18C317.268 100.18 315.984 99.724 314.844 98.812L315.546 97.822C316.578 98.614 317.652 99.01 318.768 99.01C319.344 99.01 319.806 98.878 320.154 98.614C320.514 98.35 320.694 97.99 320.694 97.534V97.498C320.694 97.078 320.496 96.754 320.1 96.526C319.704 96.298 319.128 96.076 318.372 95.86C318.036 95.764 317.79 95.692 317.634 95.644C317.478 95.584 317.25 95.494 316.95 95.374C316.65 95.254 316.422 95.14 316.266 95.032C316.122 94.912 315.96 94.768 315.78 94.6C315.612 94.42 315.486 94.216 315.402 93.988C315.33 93.76 315.294 93.508 315.294 93.232V93.196C315.294 92.404 315.588 91.762 316.176 91.27C316.776 90.778 317.538 90.532 318.462 90.532C319.662 90.532 320.778 90.874 321.81 91.558L321.18 92.602C320.256 92.002 319.338 91.702 318.426 91.702C317.886 91.702 317.448 91.828 317.112 92.08C316.788 92.332 316.626 92.656 316.626 93.052V93.088C316.626 93.256 316.674 93.412 316.77 93.556C316.866 93.7 316.974 93.82 317.094 93.916C317.214 94.012 317.4 94.114 317.652 94.222C317.916 94.33 318.126 94.408 318.282 94.456C318.438 94.504 318.684 94.582 319.02 94.69C319.368 94.798 319.656 94.894 319.884 94.978C320.124 95.062 320.388 95.182 320.676 95.338C320.976 95.482 321.21 95.644 321.378 95.824C321.558 95.992 321.708 96.208 321.828 96.472C321.948 96.736 322.008 97.03 322.008 97.354V97.39C322.008 98.254 321.696 98.938 321.072 99.442C320.448 99.934 319.656 100.18 318.696 100.18ZM327.521 100.162C326.717 100.162 326.075 99.952 325.595 99.532C325.127 99.1 324.893 98.434 324.893 97.534V91.918H323.597V90.694H324.893V87.886H326.279V90.694H329.231V91.918H326.279V97.354C326.279 98.386 326.801 98.902 327.845 98.902C328.301 98.902 328.751 98.794 329.195 98.578V99.766C328.715 100.03 328.157 100.162 327.521 100.162ZM335.489 100.216C334.193 100.216 333.095 99.766 332.195 98.866C331.295 97.954 330.845 96.79 330.845 95.374V95.338C330.845 93.982 331.265 92.836 332.105 91.9C332.957 90.964 334.025 90.496 335.309 90.496C336.641 90.496 337.697 90.964 338.477 91.9C339.257 92.836 339.647 94.006 339.647 95.41C339.647 95.602 339.641 95.752 339.629 95.86H332.249C332.345 96.844 332.699 97.618 333.311 98.182C333.935 98.734 334.673 99.01 335.525 99.01C336.629 99.01 337.607 98.572 338.459 97.696L339.323 98.47C338.303 99.634 337.025 100.216 335.489 100.216ZM332.249 94.834H338.243C338.171 93.934 337.877 93.184 337.361 92.584C336.857 91.972 336.161 91.666 335.273 91.666C334.469 91.666 333.785 91.966 333.221 92.566C332.669 93.166 332.345 93.922 332.249 94.834ZM345.979 100.198C344.791 100.198 343.753 99.76 342.865 98.884C341.977 98.008 341.533 96.838 341.533 95.374V95.338C341.533 93.886 341.977 92.716 342.865 91.828C343.753 90.94 344.791 90.496 345.979 90.496C347.455 90.496 348.643 91.156 349.543 92.476V86.86H350.929V100H349.543V98.128C348.583 99.508 347.395 100.198 345.979 100.198ZM346.231 98.956C347.131 98.956 347.917 98.62 348.589 97.948C349.261 97.264 349.597 96.4 349.597 95.356V95.32C349.597 94.288 349.261 93.436 348.589 92.764C347.917 92.08 347.131 91.738 346.231 91.738C345.295 91.738 344.515 92.062 343.891 92.71C343.267 93.358 342.955 94.228 342.955 95.32V95.356C342.955 96.436 343.267 97.306 343.891 97.966C344.527 98.626 345.307 98.956 346.231 98.956ZM364.373 100.198C362.897 100.198 361.709 99.538 360.809 98.218V100H359.423V86.86H360.809V92.566C361.781 91.186 362.969 90.496 364.373 90.496C365.561 90.496 366.599 90.934 367.487 91.81C368.375 92.686 368.819 93.856 368.819 95.32V95.356C368.819 96.808 368.375 97.978 367.487 98.866C366.599 99.754 365.561 100.198 364.373 100.198ZM364.121 98.956C365.057 98.956 365.837 98.632 366.461 97.984C367.085 97.336 367.397 96.466 367.397 95.374V95.338C367.397 94.258 367.079 93.388 366.443 92.728C365.819 92.068 365.045 91.738 364.121 91.738C363.233 91.738 362.447 92.08 361.763 92.764C361.091 93.448 360.755 94.3 360.755 95.32V95.356C360.755 96.4 361.091 97.264 361.763 97.948C362.435 98.62 363.221 98.956 364.121 98.956ZM374.897 98.452L377.885 90.694H379.361L375.455 100.306C375.071 101.254 374.633 101.926 374.141 102.322C373.661 102.73 373.067 102.934 372.359 102.934C371.687 102.934 371.027 102.778 370.379 102.466L370.847 101.368C371.291 101.596 371.777 101.71 372.305 101.71C372.737 101.71 373.091 101.578 373.367 101.314C373.655 101.062 373.937 100.612 374.213 99.964L369.983 90.694H371.513L374.897 98.452ZM79.1075 124.216C77.7275 124.216 76.5755 123.748 75.6515 122.812C74.7395 121.864 74.2835 120.724 74.2835 119.392V119.356C74.2835 118.012 74.7455 116.866 75.6695 115.918C76.5935 114.97 77.7515 114.496 79.1435 114.496C80.5235 114.496 81.6755 114.97 82.5995 115.918C83.5235 116.854 83.9855 117.988 83.9855 119.32V119.356C83.9855 120.7 83.5175 121.846 82.5815 122.794C81.6575 123.742 80.4995 124.216 79.1075 124.216ZM79.1435 122.974C80.1275 122.974 80.9435 122.626 81.5915 121.93C82.2395 121.234 82.5635 120.388 82.5635 119.392V119.356C82.5635 118.348 82.2275 117.49 81.5555 116.782C80.8955 116.074 80.0795 115.72 79.1075 115.72C78.1235 115.72 77.3075 116.074 76.6595 116.782C76.0235 117.478 75.7055 118.324 75.7055 119.32V119.356C75.7055 120.364 76.0355 121.222 76.6955 121.93C77.3555 122.626 78.1715 122.974 79.1435 122.974ZM89.0653 124.072L85.0333 114.694H86.5633L89.6953 122.416L92.8453 114.694H94.3393L90.2893 124.072H89.0653ZM100.039 124.216C98.7429 124.216 97.6449 123.766 96.7449 122.866C95.8449 121.954 95.3949 120.79 95.3949 119.374V119.338C95.3949 117.982 95.8149 116.836 96.6549 115.9C97.5069 114.964 98.5749 114.496 99.8589 114.496C101.191 114.496 102.247 114.964 103.027 115.9C103.807 116.836 104.197 118.006 104.197 119.41C104.197 119.602 104.191 119.752 104.179 119.86H96.7989C96.8949 120.844 97.2489 121.618 97.8609 122.182C98.4849 122.734 99.2229 123.01 100.075 123.01C101.179 123.01 102.157 122.572 103.009 121.696L103.873 122.47C102.853 123.634 101.575 124.216 100.039 124.216ZM96.7989 118.834H102.793C102.721 117.934 102.427 117.184 101.911 116.584C101.407 115.972 100.711 115.666 99.8229 115.666C99.0189 115.666 98.3349 115.966 97.7709 116.566C97.2189 117.166 96.8949 117.922 96.7989 118.834ZM106.623 124V114.694H108.009V117.124C108.369 116.32 108.879 115.684 109.539 115.216C110.199 114.736 110.955 114.508 111.807 114.532V116.026H111.699C110.631 116.026 109.749 116.398 109.053 117.142C108.357 117.886 108.009 118.936 108.009 120.292V124H106.623ZM123.761 124.216C122.405 124.216 121.301 123.79 120.449 122.938C119.909 122.398 119.507 121.756 119.243 121.012C118.991 120.268 118.865 119.284 118.865 118.06V118.024C118.865 116.044 119.333 114.412 120.269 113.128C121.217 111.832 122.495 111.184 124.103 111.184C125.435 111.184 126.677 111.664 127.829 112.624L127.001 113.722C126.017 112.894 125.027 112.48 124.031 112.48C122.867 112.48 121.955 113.002 121.295 114.046C120.647 115.09 120.323 116.368 120.323 117.88V118.06C121.223 116.764 122.423 116.116 123.923 116.116C125.135 116.116 126.161 116.476 127.001 117.196C127.853 117.904 128.279 118.834 128.279 119.986V120.022C128.279 121.234 127.847 122.236 126.983 123.028C126.119 123.82 125.045 124.216 123.761 124.216ZM123.779 122.956C124.691 122.956 125.423 122.68 125.975 122.128C126.539 121.576 126.821 120.892 126.821 120.076V120.04C126.821 119.272 126.533 118.63 125.957 118.114C125.381 117.598 124.643 117.34 123.743 117.34C122.831 117.34 122.075 117.622 121.475 118.186C120.887 118.738 120.593 119.374 120.593 120.094V120.13C120.593 120.934 120.893 121.606 121.493 122.146C122.093 122.686 122.855 122.956 123.779 122.956ZM132.344 124V112.786L129.968 113.524L129.626 112.372L132.704 111.31H133.748V124H132.344ZM136.437 124V122.902L141.009 118.87C141.993 117.994 142.677 117.274 143.061 116.71C143.445 116.134 143.637 115.534 143.637 114.91C143.637 114.19 143.391 113.608 142.899 113.164C142.407 112.72 141.807 112.498 141.099 112.498C140.403 112.498 139.797 112.672 139.281 113.02C138.765 113.368 138.243 113.914 137.715 114.658L136.671 113.902C137.307 112.978 137.955 112.3 138.615 111.868C139.287 111.436 140.151 111.22 141.207 111.22C142.335 111.22 143.265 111.556 143.997 112.228C144.741 112.9 145.113 113.752 145.113 114.784V114.82C145.113 115.696 144.879 116.476 144.411 117.16C143.943 117.832 143.115 118.684 141.927 119.716L138.561 122.704H145.239V124H136.437ZM147.393 126.196L147.177 125.566C148.053 125.242 148.455 124.72 148.383 124H147.735V122.11H149.391V123.73C149.391 124.45 149.229 125.002 148.905 125.386C148.593 125.77 148.089 126.04 147.393 126.196ZM160.687 122.326C159.703 123.586 158.419 124.216 156.835 124.216C155.251 124.216 153.967 123.592 152.983 122.344C152.011 121.084 151.525 119.548 151.525 117.736V117.7C151.525 115.888 152.017 114.352 153.001 113.092C153.997 111.82 155.287 111.184 156.871 111.184C158.455 111.184 159.733 111.814 160.705 113.074C161.677 114.322 162.163 115.852 162.163 117.664V117.7C162.163 119.512 161.671 121.054 160.687 122.326ZM154.063 121.39C154.783 122.41 155.719 122.92 156.871 122.92C158.023 122.92 158.947 122.416 159.643 121.408C160.339 120.4 160.687 119.176 160.687 117.736V117.7C160.687 116.272 160.327 115.048 159.607 114.028C158.899 112.996 157.975 112.48 156.835 112.48C155.695 112.48 154.771 112.984 154.063 113.992C153.355 115 153.001 116.224 153.001 117.664V117.7C153.001 119.128 153.355 120.358 154.063 121.39ZM173.554 122.326C172.57 123.586 171.286 124.216 169.702 124.216C168.118 124.216 166.834 123.592 165.85 122.344C164.878 121.084 164.392 119.548 164.392 117.736V117.7C164.392 115.888 164.884 114.352 165.868 113.092C166.864 111.82 168.154 111.184 169.738 111.184C171.322 111.184 172.6 111.814 173.572 113.074C174.544 114.322 175.03 115.852 175.03 117.664V117.7C175.03 119.512 174.538 121.054 173.554 122.326ZM166.93 121.39C167.65 122.41 168.586 122.92 169.738 122.92C170.89 122.92 171.814 122.416 172.51 121.408C173.206 120.4 173.554 119.176 173.554 117.736V117.7C173.554 116.272 173.194 115.048 172.474 114.028C171.766 112.996 170.842 112.48 169.702 112.48C168.562 112.48 167.638 112.984 166.93 113.992C166.222 115 165.868 116.224 165.868 117.664V117.7C165.868 119.128 166.222 120.358 166.93 121.39ZM186.422 122.326C185.438 123.586 184.154 124.216 182.57 124.216C180.986 124.216 179.702 123.592 178.718 122.344C177.746 121.084 177.26 119.548 177.26 117.736V117.7C177.26 115.888 177.752 114.352 178.736 113.092C179.732 111.82 181.022 111.184 182.606 111.184C184.19 111.184 185.468 111.814 186.44 113.074C187.412 114.322 187.898 115.852 187.898 117.664V117.7C187.898 119.512 187.406 121.054 186.422 122.326ZM179.798 121.39C180.518 122.41 181.454 122.92 182.606 122.92C183.758 122.92 184.682 122.416 185.378 121.408C186.074 120.4 186.422 119.176 186.422 117.736V117.7C186.422 116.272 186.062 115.048 185.342 114.028C184.634 112.996 183.71 112.48 182.57 112.48C181.43 112.48 180.506 112.984 179.798 113.992C179.09 115 178.736 116.224 178.736 117.664V117.7C178.736 119.128 179.09 120.358 179.798 121.39ZM200.203 124.216C198.823 124.216 197.671 123.748 196.747 122.812C195.835 121.864 195.379 120.724 195.379 119.392V119.356C195.379 118.012 195.841 116.866 196.765 115.918C197.689 114.97 198.847 114.496 200.239 114.496C201.619 114.496 202.771 114.97 203.695 115.918C204.619 116.854 205.081 117.988 205.081 119.32V119.356C205.081 120.7 204.613 121.846 203.677 122.794C202.753 123.742 201.595 124.216 200.203 124.216ZM200.239 122.974C201.223 122.974 202.039 122.626 202.687 121.93C203.335 121.234 203.659 120.388 203.659 119.392V119.356C203.659 118.348 203.323 117.49 202.651 116.782C201.991 116.074 201.175 115.72 200.203 115.72C199.219 115.72 198.403 116.074 197.755 116.782C197.119 117.478 196.801 118.324 196.801 119.32V119.356C196.801 120.364 197.131 121.222 197.791 121.93C198.451 122.626 199.267 122.974 200.239 122.974ZM207.592 124V114.694H208.978V116.314C209.734 115.102 210.796 114.496 212.164 114.496C213.268 114.496 214.138 114.838 214.774 115.522C215.41 116.206 215.728 117.106 215.728 118.222V124H214.342V118.564C214.342 117.688 214.114 117.004 213.658 116.512C213.214 116.008 212.584 115.756 211.768 115.756C210.964 115.756 210.298 116.026 209.77 116.566C209.242 117.106 208.978 117.808 208.978 118.672V124H207.592ZM227.59 124V112.714H223.342V111.4H233.26V112.714H229.012V124H227.59ZM234.065 124V114.694H235.451V117.124C235.811 116.32 236.321 115.684 236.981 115.216C237.641 114.736 238.397 114.508 239.249 114.532V116.026H239.141C238.073 116.026 237.191 116.398 236.495 117.142C235.799 117.886 235.451 118.936 235.451 120.292V124H234.065ZM244.78 124.198C243.676 124.198 242.806 123.856 242.17 123.172C241.534 122.488 241.216 121.588 241.216 120.472V114.694H242.602V120.13C242.602 121.006 242.824 121.696 243.268 122.2C243.724 122.692 244.36 122.938 245.176 122.938C245.98 122.938 246.646 122.668 247.174 122.128C247.702 121.588 247.966 120.886 247.966 120.022V114.694H249.334V124H247.966V122.38C247.21 123.592 246.148 124.198 244.78 124.198ZM255.529 124.18C254.101 124.18 252.817 123.724 251.677 122.812L252.379 121.822C253.411 122.614 254.485 123.01 255.601 123.01C256.177 123.01 256.639 122.878 256.987 122.614C257.347 122.35 257.527 121.99 257.527 121.534V121.498C257.527 121.078 257.329 120.754 256.933 120.526C256.537 120.298 255.961 120.076 255.205 119.86C254.869 119.764 254.623 119.692 254.467 119.644C254.311 119.584 254.083 119.494 253.783 119.374C253.483 119.254 253.255 119.14 253.099 119.032C252.955 118.912 252.793 118.768 252.613 118.6C252.445 118.42 252.319 118.216 252.235 117.988C252.163 117.76 252.127 117.508 252.127 117.232V117.196C252.127 116.404 252.421 115.762 253.009 115.27C253.609 114.778 254.371 114.532 255.295 114.532C256.495 114.532 257.611 114.874 258.643 115.558L258.013 116.602C257.089 116.002 256.171 115.702 255.259 115.702C254.719 115.702 254.281 115.828 253.945 116.08C253.621 116.332 253.459 116.656 253.459 117.052V117.088C253.459 117.256 253.507 117.412 253.603 117.556C253.699 117.7 253.807 117.82 253.927 117.916C254.047 118.012 254.233 118.114 254.485 118.222C254.749 118.33 254.959 118.408 255.115 118.456C255.271 118.504 255.517 118.582 255.853 118.69C256.201 118.798 256.489 118.894 256.717 118.978C256.957 119.062 257.221 119.182 257.509 119.338C257.809 119.482 258.043 119.644 258.211 119.824C258.391 119.992 258.541 120.208 258.661 120.472C258.781 120.736 258.841 121.03 258.841 121.354V121.39C258.841 122.254 258.529 122.938 257.905 123.442C257.281 123.934 256.489 124.18 255.529 124.18ZM264.354 124.162C263.55 124.162 262.908 123.952 262.428 123.532C261.96 123.1 261.726 122.434 261.726 121.534V115.918H260.43V114.694H261.726V111.886H263.112V114.694H266.064V115.918H263.112V121.354C263.112 122.386 263.634 122.902 264.678 122.902C265.134 122.902 265.584 122.794 266.028 122.578V123.766C265.548 124.03 264.99 124.162 264.354 124.162ZM268.518 126.88V114.694H269.904V116.566C270.876 115.186 272.064 114.496 273.468 114.496C274.656 114.496 275.694 114.934 276.582 115.81C277.47 116.686 277.914 117.856 277.914 119.32V119.356C277.914 120.808 277.47 121.978 276.582 122.866C275.694 123.754 274.656 124.198 273.468 124.198C271.992 124.198 270.804 123.538 269.904 122.218V126.88H268.518ZM273.216 122.956C274.152 122.956 274.932 122.632 275.556 121.984C276.18 121.336 276.492 120.466 276.492 119.374V119.338C276.492 118.258 276.174 117.388 275.538 116.728C274.914 116.068 274.14 115.738 273.216 115.738C272.328 115.738 271.542 116.08 270.858 116.764C270.186 117.448 269.85 118.3 269.85 119.32V119.356C269.85 120.4 270.186 121.264 270.858 121.948C271.53 122.62 272.316 122.956 273.216 122.956ZM280.507 112.66V111.13H282.091V112.66H280.507ZM280.597 124V114.694H281.983V124H280.597ZM285.325 124V110.86H286.711V124H285.325ZM294.176 124.216C292.796 124.216 291.644 123.748 290.72 122.812C289.808 121.864 289.352 120.724 289.352 119.392V119.356C289.352 118.012 289.814 116.866 290.738 115.918C291.662 114.97 292.82 114.496 294.212 114.496C295.592 114.496 296.744 114.97 297.668 115.918C298.592 116.854 299.054 117.988 299.054 119.32V119.356C299.054 120.7 298.586 121.846 297.65 122.794C296.726 123.742 295.568 124.216 294.176 124.216ZM294.212 122.974C295.196 122.974 296.012 122.626 296.66 121.93C297.308 121.234 297.632 120.388 297.632 119.392V119.356C297.632 118.348 297.296 117.49 296.624 116.782C295.964 116.074 295.148 115.72 294.176 115.72C293.192 115.72 292.376 116.074 291.728 116.782C291.092 117.478 290.774 118.324 290.774 119.32V119.356C290.774 120.364 291.104 121.222 291.764 121.93C292.424 122.626 293.24 122.974 294.212 122.974ZM304.679 124.162C303.875 124.162 303.233 123.952 302.753 123.532C302.285 123.1 302.051 122.434 302.051 121.534V115.918H300.755V114.694H302.051V111.886H303.437V114.694H306.389V115.918H303.437V121.354C303.437 122.386 303.959 122.902 305.003 122.902C305.459 122.902 305.909 122.794 306.353 122.578V123.766C305.873 124.03 305.315 124.162 304.679 124.162ZM308.662 124V122.11H310.318V124H308.662Z" fill="#E4E4E4"/>
</svg>
